G75*
%MOIN*%
%OFA0B0*%
%FSLAX24Y24*%
%IPPOS*%
%LPD*%
%AMOC8*
5,1,8,0,0,1.08239X$1,22.5*
%
%ADD10C,0.0000*%
%ADD11C,0.0040*%
%ADD12C,0.0060*%
%ADD13C,0.0120*%
%ADD14C,0.0050*%
%ADD15R,0.0250X0.1400*%
%ADD16R,0.0550X0.0300*%
%ADD17R,0.2200X0.0300*%
%ADD18R,0.0500X0.0350*%
%ADD19C,0.0020*%
%ADD20C,0.0070*%
%ADD21R,0.0450X0.0250*%
%ADD22R,0.0200X0.1750*%
%ADD23R,0.0200X0.3200*%
%ADD24R,0.0050X0.1250*%
%ADD25R,0.0200X0.1600*%
%ADD26R,0.1000X0.0500*%
%ADD27C,0.0160*%
%ADD28R,0.0160X0.0230*%
%ADD29R,0.0250X0.0300*%
%ADD30R,0.1100X0.0500*%
%ADD31C,0.0080*%
%ADD32R,0.0340X0.0300*%
%ADD33R,0.0300X0.0110*%
%ADD34R,0.0200X0.0736*%
%ADD35R,0.0250X0.0335*%
%ADD36C,0.0100*%
%ADD37C,0.0320*%
%ADD38R,0.0157X0.0827*%
D10*
X011377Y016908D02*
X011377Y048279D01*
X046747Y048279D01*
X046747Y016908D01*
X011377Y016908D01*
X024327Y031783D02*
X024329Y031833D01*
X024335Y031883D01*
X024345Y031933D01*
X024358Y031981D01*
X024375Y032029D01*
X024396Y032075D01*
X024420Y032119D01*
X024448Y032161D01*
X024479Y032201D01*
X024513Y032238D01*
X024550Y032273D01*
X024589Y032304D01*
X024630Y032333D01*
X024674Y032358D01*
X024720Y032380D01*
X024767Y032398D01*
X024815Y032412D01*
X024864Y032423D01*
X024914Y032430D01*
X024964Y032433D01*
X025015Y032432D01*
X025065Y032427D01*
X025115Y032418D01*
X025163Y032406D01*
X025211Y032389D01*
X025257Y032369D01*
X025302Y032346D01*
X025345Y032319D01*
X025385Y032289D01*
X025423Y032256D01*
X025458Y032220D01*
X025491Y032181D01*
X025520Y032140D01*
X025546Y032097D01*
X025569Y032052D01*
X025588Y032005D01*
X025603Y031957D01*
X025615Y031908D01*
X025623Y031858D01*
X025627Y031808D01*
X025627Y031758D01*
X025623Y031708D01*
X025615Y031658D01*
X025603Y031609D01*
X025588Y031561D01*
X025569Y031514D01*
X025546Y031469D01*
X025520Y031426D01*
X025491Y031385D01*
X025458Y031346D01*
X025423Y031310D01*
X025385Y031277D01*
X025345Y031247D01*
X025302Y031220D01*
X025257Y031197D01*
X025211Y031177D01*
X025163Y031160D01*
X025115Y031148D01*
X025065Y031139D01*
X025015Y031134D01*
X024964Y031133D01*
X024914Y031136D01*
X024864Y031143D01*
X024815Y031154D01*
X024767Y031168D01*
X024720Y031186D01*
X024674Y031208D01*
X024630Y031233D01*
X024589Y031262D01*
X024550Y031293D01*
X024513Y031328D01*
X024479Y031365D01*
X024448Y031405D01*
X024420Y031447D01*
X024396Y031491D01*
X024375Y031537D01*
X024358Y031585D01*
X024345Y031633D01*
X024335Y031683D01*
X024329Y031733D01*
X024327Y031783D01*
D11*
X025896Y031644D02*
X025896Y031404D01*
X026077Y031404D01*
X026016Y031524D01*
X026016Y031584D01*
X026077Y031644D01*
X026197Y031644D01*
X026257Y031584D01*
X026257Y031464D01*
X026197Y031404D01*
X026197Y031278D02*
X026197Y031218D01*
X026257Y031218D01*
X026257Y031278D01*
X026197Y031278D01*
X026257Y031278D02*
X026377Y031158D01*
X026257Y030790D02*
X026197Y030790D01*
X025956Y031030D01*
X025896Y031030D01*
X025896Y030790D01*
X025896Y030542D02*
X026257Y030542D01*
X026257Y030422D02*
X026257Y030662D01*
X026016Y030422D02*
X025896Y030542D01*
X026016Y030294D02*
X026257Y030294D01*
X026077Y030294D02*
X026077Y030053D01*
X026016Y030053D02*
X025896Y030173D01*
X026016Y030294D01*
X026016Y030053D02*
X026257Y030053D01*
X026257Y031772D02*
X026016Y031772D01*
X026016Y031832D01*
X026077Y031892D01*
X026016Y031952D01*
X026077Y032012D01*
X026257Y032012D01*
X026257Y031892D02*
X026077Y031892D01*
X026016Y032140D02*
X026016Y032200D01*
X026077Y032261D01*
X026016Y032321D01*
X026077Y032381D01*
X026257Y032381D01*
X026257Y032261D02*
X026077Y032261D01*
X026016Y032140D02*
X026257Y032140D01*
X025707Y035875D02*
X025356Y035875D01*
X025356Y036050D01*
X025415Y036109D01*
X025532Y036109D01*
X025590Y036050D01*
X025590Y035875D01*
X025590Y035992D02*
X025707Y036109D01*
X025707Y036234D02*
X025707Y036468D01*
X025707Y036351D02*
X025356Y036351D01*
X025473Y036234D01*
X024207Y036234D02*
X023973Y036468D01*
X023915Y036468D01*
X023856Y036409D01*
X023856Y036293D01*
X023915Y036234D01*
X023915Y036109D02*
X024032Y036109D01*
X024090Y036050D01*
X024090Y035875D01*
X024207Y035875D02*
X023856Y035875D01*
X023856Y036050D01*
X023915Y036109D01*
X024090Y035992D02*
X024207Y036109D01*
X024207Y036234D02*
X024207Y036468D01*
X023000Y038263D02*
X022883Y038263D01*
X022825Y038322D01*
X023058Y038555D01*
X023058Y038322D01*
X023000Y038263D01*
X022825Y038322D02*
X022825Y038555D01*
X022883Y038614D01*
X023000Y038614D01*
X023058Y038555D01*
X022699Y038263D02*
X022466Y038263D01*
X022583Y038263D02*
X022583Y038614D01*
X022466Y038497D01*
X022340Y038555D02*
X022340Y038438D01*
X022282Y038380D01*
X022107Y038380D01*
X022223Y038380D02*
X022340Y038263D01*
X022107Y038263D02*
X022107Y038614D01*
X022282Y038614D01*
X022340Y038555D01*
X019416Y042178D02*
X019263Y042178D01*
X019186Y042255D01*
X019186Y042409D02*
X019340Y042485D01*
X019416Y042485D01*
X019493Y042409D01*
X019493Y042255D01*
X019416Y042178D01*
X019186Y042409D02*
X019186Y042639D01*
X019493Y042639D01*
X018879Y042639D02*
X018879Y042178D01*
X018726Y042178D02*
X019033Y042178D01*
X018726Y042485D02*
X018879Y042639D01*
X018572Y042562D02*
X018496Y042639D01*
X018342Y042639D01*
X018265Y042562D01*
X018265Y042255D01*
X018342Y042178D01*
X018496Y042178D01*
X018572Y042255D01*
X016465Y040264D02*
X016465Y039803D01*
X016618Y039803D02*
X016311Y039803D01*
X016158Y039880D02*
X016081Y039803D01*
X015928Y039803D01*
X015851Y039880D01*
X015697Y039880D02*
X015621Y039803D01*
X015467Y039803D01*
X015390Y039880D01*
X015390Y040264D01*
X015697Y040264D02*
X015697Y039880D01*
X015851Y040110D02*
X015851Y040187D01*
X015928Y040264D01*
X016081Y040264D01*
X016158Y040187D01*
X016311Y040110D02*
X016465Y040264D01*
X016158Y039957D02*
X016081Y040034D01*
X015928Y040034D01*
X015851Y040110D01*
X016004Y040340D02*
X016004Y039727D01*
X016158Y039880D02*
X016158Y039957D01*
X020171Y044513D02*
X020171Y044688D01*
X020230Y044747D01*
X020347Y044747D01*
X020405Y044688D01*
X020405Y044513D01*
X020522Y044513D02*
X020171Y044513D01*
X020405Y044630D02*
X020522Y044747D01*
X020347Y044872D02*
X020347Y045106D01*
X020522Y045048D02*
X020171Y045048D01*
X020347Y044872D01*
X021046Y044989D02*
X021397Y044989D01*
X021397Y044872D02*
X021397Y045106D01*
X021338Y045232D02*
X021397Y045290D01*
X021397Y045407D01*
X021338Y045465D01*
X021280Y045465D01*
X021222Y045407D01*
X021222Y045348D01*
X021222Y045407D02*
X021163Y045465D01*
X021105Y045465D01*
X021046Y045407D01*
X021046Y045290D01*
X021105Y045232D01*
X021046Y044989D02*
X021163Y044872D01*
X021105Y044747D02*
X021222Y044747D01*
X021280Y044688D01*
X021280Y044513D01*
X021397Y044513D02*
X021046Y044513D01*
X021046Y044688D01*
X021105Y044747D01*
X021280Y044630D02*
X021397Y044747D01*
X022046Y045013D02*
X022046Y045188D01*
X022105Y045247D01*
X022222Y045247D01*
X022280Y045188D01*
X022280Y045013D01*
X022397Y045013D02*
X022046Y045013D01*
X022280Y045130D02*
X022397Y045247D01*
X022338Y045372D02*
X022397Y045431D01*
X022397Y045548D01*
X022338Y045606D01*
X022280Y045606D01*
X022222Y045548D01*
X022222Y045489D01*
X022222Y045548D02*
X022163Y045606D01*
X022105Y045606D01*
X022046Y045548D01*
X022046Y045431D01*
X022105Y045372D01*
X018147Y045356D02*
X018147Y045122D01*
X017913Y045356D01*
X017855Y045356D01*
X017796Y045298D01*
X017796Y045181D01*
X017855Y045122D01*
X017855Y044997D02*
X017972Y044997D01*
X018030Y044938D01*
X018030Y044763D01*
X018147Y044763D02*
X017796Y044763D01*
X017796Y044938D01*
X017855Y044997D01*
X018030Y044880D02*
X018147Y044997D01*
X017972Y045482D02*
X017796Y045657D01*
X018147Y045657D01*
X017972Y045715D02*
X017972Y045482D01*
X027897Y045187D02*
X027897Y044880D01*
X027973Y044803D01*
X028127Y044803D01*
X028204Y044880D01*
X028357Y044803D02*
X028664Y044803D01*
X028511Y044803D02*
X028511Y045264D01*
X028357Y045110D01*
X028204Y045187D02*
X028127Y045264D01*
X027973Y045264D01*
X027897Y045187D01*
X028973Y042264D02*
X028897Y042187D01*
X028897Y041880D01*
X028973Y041803D01*
X029127Y041803D01*
X029204Y041880D01*
X029357Y041803D02*
X029664Y042110D01*
X029664Y042187D01*
X029587Y042264D01*
X029434Y042264D01*
X029357Y042187D01*
X029204Y042187D02*
X029127Y042264D01*
X028973Y042264D01*
X029357Y041803D02*
X029664Y041803D01*
X030896Y037571D02*
X030896Y037264D01*
X031126Y037264D01*
X031050Y037417D01*
X031050Y037494D01*
X031126Y037571D01*
X031280Y037571D01*
X031357Y037494D01*
X031357Y037340D01*
X031280Y037264D01*
X031280Y037110D02*
X031357Y037034D01*
X031357Y036880D01*
X031280Y036803D01*
X030973Y036803D01*
X030896Y036880D01*
X030896Y037034D01*
X030973Y037110D01*
X028357Y037034D02*
X028357Y036880D01*
X028280Y036803D01*
X027973Y036803D01*
X027896Y036880D01*
X027896Y037034D01*
X027973Y037110D01*
X028126Y037264D02*
X028126Y037571D01*
X027896Y037494D02*
X028126Y037264D01*
X028280Y037110D02*
X028357Y037034D01*
X028357Y037494D02*
X027896Y037494D01*
X034046Y037407D02*
X034046Y037290D01*
X034105Y037232D01*
X034106Y037191D02*
X034165Y037250D01*
X034282Y037250D01*
X034340Y037191D01*
X034340Y037016D01*
X034397Y037106D02*
X034397Y036872D01*
X034163Y037106D01*
X034105Y037106D01*
X034046Y037048D01*
X034046Y036931D01*
X034105Y036872D01*
X034105Y036747D02*
X034222Y036747D01*
X034280Y036688D01*
X034280Y036513D01*
X034397Y036513D02*
X034046Y036513D01*
X034046Y036688D01*
X034105Y036747D01*
X034280Y036630D02*
X034397Y036747D01*
X034457Y037016D02*
X034106Y037016D01*
X034106Y037191D01*
X034223Y037375D02*
X034106Y037492D01*
X034457Y037492D01*
X034397Y037465D02*
X034397Y037232D01*
X034163Y037465D01*
X034105Y037465D01*
X034046Y037407D01*
X034165Y037734D02*
X034106Y037793D01*
X034106Y037909D01*
X034165Y037968D01*
X034223Y037968D01*
X034457Y037734D01*
X034457Y037968D01*
X034457Y037609D02*
X034457Y037375D01*
X034457Y037250D02*
X034340Y037133D01*
X036356Y037191D02*
X036415Y037250D01*
X036532Y037250D01*
X036590Y037191D01*
X036590Y037016D01*
X036707Y037016D02*
X036356Y037016D01*
X036356Y037191D01*
X036415Y037375D02*
X036356Y037433D01*
X036356Y037550D01*
X036415Y037609D01*
X036473Y037609D01*
X036707Y037375D01*
X036707Y037609D01*
X036648Y037734D02*
X036707Y037793D01*
X036707Y037909D01*
X036648Y037968D01*
X036590Y037968D01*
X036532Y037909D01*
X036532Y037851D01*
X036532Y037909D02*
X036473Y037968D01*
X036415Y037968D01*
X036356Y037909D01*
X036356Y037793D01*
X036415Y037734D01*
X036707Y037250D02*
X036590Y037133D01*
X037356Y036992D02*
X037473Y036875D01*
X037415Y036750D02*
X037532Y036750D01*
X037590Y036691D01*
X037590Y036516D01*
X037707Y036516D02*
X037356Y036516D01*
X037356Y036691D01*
X037415Y036750D01*
X037590Y036633D02*
X037707Y036750D01*
X037707Y036875D02*
X037707Y037109D01*
X037707Y036992D02*
X037356Y036992D01*
X037415Y037234D02*
X037473Y037234D01*
X037532Y037293D01*
X037532Y037409D01*
X037590Y037468D01*
X037648Y037468D01*
X037707Y037409D01*
X037707Y037293D01*
X037648Y037234D01*
X037590Y037234D01*
X037532Y037293D01*
X037532Y037409D02*
X037473Y037468D01*
X037415Y037468D01*
X037356Y037409D01*
X037356Y037293D01*
X037415Y037234D01*
X040146Y037928D02*
X040146Y038159D01*
X040223Y038235D01*
X040530Y038235D01*
X040607Y038159D01*
X040607Y037928D01*
X040146Y037928D01*
X040223Y038389D02*
X040146Y038465D01*
X040146Y038619D01*
X040223Y038696D01*
X040300Y038696D01*
X040607Y038389D01*
X040607Y038696D01*
X039291Y040428D02*
X039138Y040428D01*
X039061Y040505D01*
X039061Y040659D01*
X039291Y040659D01*
X039368Y040582D01*
X039368Y040505D01*
X039291Y040428D01*
X039061Y040659D02*
X039215Y040812D01*
X039368Y040889D01*
X038908Y040812D02*
X038908Y040659D01*
X038831Y040582D01*
X038601Y040582D01*
X038754Y040582D02*
X038908Y040428D01*
X038601Y040428D02*
X038601Y040889D01*
X038831Y040889D01*
X038908Y040812D01*
X037207Y040750D02*
X037090Y040633D01*
X037090Y040691D02*
X037090Y040516D01*
X037207Y040516D02*
X036856Y040516D01*
X036856Y040691D01*
X036915Y040750D01*
X037032Y040750D01*
X037090Y040691D01*
X037207Y040875D02*
X037207Y041109D01*
X037207Y040992D02*
X036856Y040992D01*
X036973Y040875D01*
X036973Y041234D02*
X036856Y041351D01*
X037207Y041351D01*
X037207Y041234D02*
X037207Y041468D01*
X039146Y044678D02*
X039146Y044832D01*
X039146Y044755D02*
X039607Y044755D01*
X039607Y044678D02*
X039607Y044832D01*
X039530Y044985D02*
X039607Y045062D01*
X039607Y045215D01*
X039530Y045292D01*
X039530Y045446D02*
X039607Y045522D01*
X039607Y045676D01*
X039530Y045753D01*
X039453Y045753D01*
X039376Y045676D01*
X039376Y045599D01*
X039376Y045676D02*
X039300Y045753D01*
X039223Y045753D01*
X039146Y045676D01*
X039146Y045522D01*
X039223Y045446D01*
X039223Y045292D02*
X039146Y045215D01*
X039146Y045062D01*
X039223Y044985D01*
X039530Y044985D01*
X039928Y046456D02*
X039928Y046687D01*
X040005Y046763D01*
X040158Y046763D01*
X040235Y046687D01*
X040235Y046456D01*
X040388Y046456D02*
X039928Y046456D01*
X040235Y046610D02*
X040388Y046763D01*
X040388Y046917D02*
X040311Y046917D01*
X040005Y047224D01*
X039928Y047224D01*
X039928Y046917D01*
X043101Y044889D02*
X043101Y044428D01*
X043331Y044428D01*
X043408Y044505D01*
X043408Y044812D01*
X043331Y044889D01*
X043101Y044889D01*
X043561Y044889D02*
X043868Y044889D01*
X043868Y044812D01*
X043561Y044505D01*
X043561Y044428D01*
X043638Y042264D02*
X043561Y042187D01*
X043561Y042110D01*
X043638Y042034D01*
X043868Y042034D01*
X043868Y042187D02*
X043791Y042264D01*
X043638Y042264D01*
X043408Y042187D02*
X043331Y042264D01*
X043101Y042264D01*
X043101Y041803D01*
X043331Y041803D01*
X043408Y041880D01*
X043408Y042187D01*
X043561Y041880D02*
X043638Y041803D01*
X043791Y041803D01*
X043868Y041880D01*
X043868Y042187D01*
X024707Y025909D02*
X024707Y025793D01*
X024648Y025734D01*
X024415Y025968D01*
X024648Y025968D01*
X024707Y025909D01*
X024648Y025734D02*
X024415Y025734D01*
X024356Y025793D01*
X024356Y025909D01*
X024415Y025968D01*
X024415Y025609D02*
X024356Y025550D01*
X024356Y025433D01*
X024415Y025375D01*
X024415Y025250D02*
X024532Y025250D01*
X024590Y025191D01*
X024590Y025016D01*
X024707Y025016D02*
X024356Y025016D01*
X024356Y025191D01*
X024415Y025250D01*
X024590Y025133D02*
X024707Y025250D01*
X024707Y025375D02*
X024473Y025609D01*
X024415Y025609D01*
X024707Y025609D02*
X024707Y025375D01*
X024357Y024494D02*
X023896Y024494D01*
X024126Y024264D01*
X024126Y024571D01*
X023973Y024110D02*
X024280Y024110D01*
X024357Y024034D01*
X024357Y023880D01*
X024280Y023803D01*
X023973Y023803D01*
X023896Y023880D01*
X023896Y024034D01*
X023973Y024110D01*
X024203Y023957D02*
X024357Y024110D01*
X021397Y025013D02*
X021046Y025013D01*
X021046Y025188D01*
X021105Y025247D01*
X021222Y025247D01*
X021280Y025188D01*
X021280Y025013D01*
X021280Y025130D02*
X021397Y025247D01*
X021397Y025372D02*
X021397Y025606D01*
X021397Y025489D02*
X021046Y025489D01*
X021163Y025372D01*
X021222Y025732D02*
X021163Y025848D01*
X021163Y025907D01*
X021222Y025965D01*
X021338Y025965D01*
X021397Y025907D01*
X021397Y025790D01*
X021338Y025732D01*
X021222Y025732D02*
X021046Y025732D01*
X021046Y025965D01*
X019503Y028453D02*
X019386Y028453D01*
X019328Y028512D01*
X019328Y028570D01*
X019386Y028628D01*
X019503Y028628D01*
X019561Y028570D01*
X019561Y028512D01*
X019503Y028453D01*
X019503Y028628D02*
X019561Y028687D01*
X019561Y028745D01*
X019503Y028804D01*
X019386Y028804D01*
X019328Y028745D01*
X019328Y028687D01*
X019386Y028628D01*
X019202Y028628D02*
X019144Y028570D01*
X018968Y028570D01*
X018968Y028453D02*
X018968Y028804D01*
X019144Y028804D01*
X019202Y028745D01*
X019202Y028628D01*
X019085Y028570D02*
X019202Y028453D01*
X016561Y028512D02*
X016503Y028453D01*
X016386Y028453D01*
X016328Y028512D01*
X016328Y028628D02*
X016444Y028687D01*
X016503Y028687D01*
X016561Y028628D01*
X016561Y028512D01*
X016328Y028628D02*
X016328Y028804D01*
X016561Y028804D01*
X016202Y028745D02*
X016202Y028628D01*
X016144Y028570D01*
X015968Y028570D01*
X015968Y028453D02*
X015968Y028804D01*
X016144Y028804D01*
X016202Y028745D01*
X016085Y028570D02*
X016202Y028453D01*
X015357Y031803D02*
X015357Y031880D01*
X015664Y032187D01*
X015664Y032264D01*
X015357Y032264D01*
X015204Y032187D02*
X015127Y032264D01*
X014973Y032264D01*
X014897Y032187D01*
X014897Y031880D01*
X014973Y031803D01*
X015127Y031803D01*
X015204Y031880D01*
X017397Y031880D02*
X017473Y031803D01*
X017627Y031803D01*
X017704Y031880D01*
X017857Y031880D02*
X017934Y031803D01*
X018087Y031803D01*
X018164Y031880D01*
X018164Y031957D01*
X018087Y032034D01*
X017857Y032034D01*
X017857Y031880D01*
X017857Y032034D02*
X018011Y032187D01*
X018164Y032264D01*
X017704Y032187D02*
X017627Y032264D01*
X017473Y032264D01*
X017397Y032187D01*
X017397Y031880D01*
X019897Y031880D02*
X019973Y031803D01*
X020127Y031803D01*
X020204Y031880D01*
X020357Y031880D02*
X020357Y031957D01*
X020434Y032034D01*
X020587Y032034D01*
X020664Y031957D01*
X020664Y031880D01*
X020587Y031803D01*
X020434Y031803D01*
X020357Y031880D01*
X020434Y032034D02*
X020357Y032110D01*
X020357Y032187D01*
X020434Y032264D01*
X020587Y032264D01*
X020664Y032187D01*
X020664Y032110D01*
X020587Y032034D01*
X020204Y032187D02*
X020127Y032264D01*
X019973Y032264D01*
X019897Y032187D01*
X019897Y031880D01*
X016164Y034880D02*
X016164Y035187D01*
X016087Y035264D01*
X015934Y035264D01*
X015857Y035187D01*
X015857Y035110D01*
X015934Y035034D01*
X016164Y035034D01*
X016164Y034880D02*
X016087Y034803D01*
X015934Y034803D01*
X015857Y034880D01*
X015704Y034880D02*
X015627Y034803D01*
X015473Y034803D01*
X015397Y034880D01*
X015397Y035187D01*
X015473Y035264D01*
X015627Y035264D01*
X015704Y035187D01*
X028356Y024468D02*
X028415Y024468D01*
X028648Y024234D01*
X028707Y024234D01*
X028780Y024264D02*
X028857Y024340D01*
X028857Y024494D01*
X028780Y024571D01*
X028703Y024571D01*
X028626Y024494D01*
X028626Y024417D01*
X028626Y024494D02*
X028550Y024571D01*
X028473Y024571D01*
X028396Y024494D01*
X028396Y024340D01*
X028473Y024264D01*
X028356Y024234D02*
X028356Y024468D01*
X028473Y024110D02*
X028780Y024110D01*
X028857Y024034D01*
X028857Y023880D01*
X028780Y023803D01*
X028473Y023803D01*
X028396Y023880D01*
X028396Y024034D01*
X028473Y024110D01*
X028356Y023992D02*
X028707Y023992D01*
X028703Y023957D02*
X028857Y024110D01*
X028707Y024109D02*
X028707Y023875D01*
X028707Y023750D02*
X028590Y023633D01*
X028590Y023691D02*
X028590Y023516D01*
X028707Y023516D02*
X028356Y023516D01*
X028356Y023691D01*
X028415Y023750D01*
X028532Y023750D01*
X028590Y023691D01*
X028473Y023875D02*
X028356Y023992D01*
X019107Y022744D02*
X019107Y022590D01*
X019030Y022514D01*
X018876Y022514D01*
X018876Y022744D01*
X018953Y022821D01*
X019030Y022821D01*
X019107Y022744D01*
X018876Y022514D02*
X018723Y022667D01*
X018646Y022821D01*
X018723Y022360D02*
X018646Y022284D01*
X018646Y022053D01*
X019107Y022053D01*
X019107Y022284D01*
X019030Y022360D01*
X018723Y022360D01*
X017397Y022407D02*
X017338Y022465D01*
X017280Y022465D01*
X017222Y022407D01*
X017222Y022232D01*
X017338Y022232D01*
X017397Y022290D01*
X017397Y022407D01*
X017222Y022232D02*
X017105Y022348D01*
X017046Y022465D01*
X017046Y021989D02*
X017397Y021989D01*
X017397Y021872D02*
X017397Y022106D01*
X017163Y021872D02*
X017046Y021989D01*
X017105Y021747D02*
X017222Y021747D01*
X017280Y021688D01*
X017280Y021513D01*
X017397Y021513D02*
X017046Y021513D01*
X017046Y021688D01*
X017105Y021747D01*
X017280Y021630D02*
X017397Y021747D01*
X015397Y021747D02*
X015280Y021630D01*
X015280Y021688D02*
X015280Y021513D01*
X015397Y021513D02*
X015046Y021513D01*
X015046Y021688D01*
X015105Y021747D01*
X015222Y021747D01*
X015280Y021688D01*
X015338Y021872D02*
X015397Y021931D01*
X015397Y022048D01*
X015338Y022106D01*
X015105Y022106D01*
X015046Y022048D01*
X015046Y021931D01*
X015105Y021872D01*
X015163Y021872D01*
X015222Y021931D01*
X015222Y022106D01*
D12*
X015527Y021783D02*
X015577Y021833D01*
X015577Y022733D01*
X015527Y022783D01*
X015527Y022883D01*
X015529Y022900D01*
X015533Y022917D01*
X015540Y022933D01*
X015550Y022947D01*
X015563Y022960D01*
X015577Y022970D01*
X015593Y022977D01*
X015610Y022981D01*
X015627Y022983D01*
X016127Y022983D02*
X016144Y022981D01*
X016161Y022977D01*
X016177Y022970D01*
X016191Y022960D01*
X016204Y022947D01*
X016214Y022933D01*
X016221Y022917D01*
X016225Y022900D01*
X016227Y022883D01*
X016227Y022783D01*
X016177Y022733D01*
X016177Y021833D01*
X016227Y021783D01*
X016227Y021683D01*
X016225Y021666D01*
X016221Y021649D01*
X016214Y021633D01*
X016204Y021619D01*
X016191Y021606D01*
X016177Y021596D01*
X016161Y021589D01*
X016144Y021585D01*
X016127Y021583D01*
X015627Y021583D02*
X015610Y021585D01*
X015593Y021589D01*
X015577Y021596D01*
X015563Y021606D01*
X015550Y021619D01*
X015540Y021633D01*
X015533Y021649D01*
X015529Y021666D01*
X015527Y021683D01*
X015527Y021783D01*
X017527Y021783D02*
X017577Y021833D01*
X017577Y022733D01*
X017527Y022783D01*
X017527Y022883D01*
X017529Y022900D01*
X017533Y022917D01*
X017540Y022933D01*
X017550Y022947D01*
X017563Y022960D01*
X017577Y022970D01*
X017593Y022977D01*
X017610Y022981D01*
X017627Y022983D01*
X018127Y022983D02*
X018144Y022981D01*
X018161Y022977D01*
X018177Y022970D01*
X018191Y022960D01*
X018204Y022947D01*
X018214Y022933D01*
X018221Y022917D01*
X018225Y022900D01*
X018227Y022883D01*
X018227Y022783D01*
X018177Y022733D01*
X018177Y021833D01*
X018227Y021783D01*
X018227Y021683D01*
X018225Y021666D01*
X018221Y021649D01*
X018214Y021633D01*
X018204Y021619D01*
X018191Y021606D01*
X018177Y021596D01*
X018161Y021589D01*
X018144Y021585D01*
X018127Y021583D01*
X017627Y021583D02*
X017610Y021585D01*
X017593Y021589D01*
X017577Y021596D01*
X017563Y021606D01*
X017550Y021619D01*
X017540Y021633D01*
X017533Y021649D01*
X017529Y021666D01*
X017527Y021683D01*
X017527Y021783D01*
X019617Y022223D02*
X019617Y022443D01*
X019617Y022223D02*
X019937Y022223D01*
X019617Y023123D02*
X019617Y023343D01*
X019937Y023343D01*
X020877Y025133D02*
X018877Y025133D01*
X018877Y025883D01*
X018916Y025885D01*
X018955Y025891D01*
X018993Y025900D01*
X019030Y025913D01*
X019066Y025930D01*
X019099Y025950D01*
X019131Y025974D01*
X019160Y026000D01*
X019186Y026029D01*
X019210Y026061D01*
X019230Y026094D01*
X019247Y026130D01*
X019260Y026167D01*
X019269Y026205D01*
X019275Y026244D01*
X019277Y026283D01*
X019275Y026322D01*
X019269Y026361D01*
X019260Y026399D01*
X019247Y026436D01*
X019230Y026472D01*
X019210Y026505D01*
X019186Y026537D01*
X019160Y026566D01*
X019131Y026592D01*
X019099Y026616D01*
X019066Y026636D01*
X019030Y026653D01*
X018993Y026666D01*
X018955Y026675D01*
X018916Y026681D01*
X018877Y026683D01*
X018877Y027433D01*
X020877Y027433D01*
X020877Y025133D01*
X021527Y025183D02*
X021527Y025283D01*
X021577Y025333D01*
X021577Y026233D01*
X021527Y026283D01*
X021527Y026383D01*
X021529Y026400D01*
X021533Y026417D01*
X021540Y026433D01*
X021550Y026447D01*
X021563Y026460D01*
X021577Y026470D01*
X021593Y026477D01*
X021610Y026481D01*
X021627Y026483D01*
X022127Y026483D02*
X022144Y026481D01*
X022161Y026477D01*
X022177Y026470D01*
X022191Y026460D01*
X022204Y026447D01*
X022214Y026433D01*
X022221Y026417D01*
X022225Y026400D01*
X022227Y026383D01*
X022227Y026283D01*
X022177Y026233D01*
X022177Y025333D01*
X022227Y025283D01*
X022227Y025183D01*
X022225Y025166D01*
X022221Y025149D01*
X022214Y025133D01*
X022204Y025119D01*
X022191Y025106D01*
X022177Y025096D01*
X022161Y025089D01*
X022144Y025085D01*
X022127Y025083D01*
X021627Y025083D02*
X021610Y025085D01*
X021593Y025089D01*
X021577Y025096D01*
X021563Y025106D01*
X021550Y025119D01*
X021540Y025133D01*
X021533Y025149D01*
X021529Y025166D01*
X021527Y025183D01*
X023527Y024783D02*
X023527Y024683D01*
X023529Y024666D01*
X023533Y024649D01*
X023540Y024633D01*
X023550Y024619D01*
X023563Y024606D01*
X023577Y024596D01*
X023593Y024589D01*
X023610Y024585D01*
X023627Y024583D01*
X023527Y024783D02*
X023577Y024833D01*
X023577Y025733D01*
X023527Y025783D01*
X023527Y025883D01*
X023529Y025900D01*
X023533Y025917D01*
X023540Y025933D01*
X023550Y025947D01*
X023563Y025960D01*
X023577Y025970D01*
X023593Y025977D01*
X023610Y025981D01*
X023627Y025983D01*
X024127Y025983D02*
X024144Y025981D01*
X024161Y025977D01*
X024177Y025970D01*
X024191Y025960D01*
X024204Y025947D01*
X024214Y025933D01*
X024221Y025917D01*
X024225Y025900D01*
X024227Y025883D01*
X024227Y025783D01*
X024177Y025733D01*
X024177Y024833D01*
X024227Y024783D01*
X024227Y024683D01*
X024225Y024666D01*
X024221Y024649D01*
X024214Y024633D01*
X024204Y024619D01*
X024191Y024606D01*
X024177Y024596D01*
X024161Y024589D01*
X024144Y024585D01*
X024127Y024583D01*
X027527Y024383D02*
X027527Y024283D01*
X027577Y024233D01*
X027577Y023333D01*
X027527Y023283D01*
X027527Y023183D01*
X027529Y023166D01*
X027533Y023149D01*
X027540Y023133D01*
X027550Y023119D01*
X027563Y023106D01*
X027577Y023096D01*
X027593Y023089D01*
X027610Y023085D01*
X027627Y023083D01*
X028127Y023083D02*
X028144Y023085D01*
X028161Y023089D01*
X028177Y023096D01*
X028191Y023106D01*
X028204Y023119D01*
X028214Y023133D01*
X028221Y023149D01*
X028225Y023166D01*
X028227Y023183D01*
X028227Y023283D01*
X028177Y023333D01*
X028177Y024233D01*
X028227Y024283D01*
X028227Y024383D01*
X028225Y024400D01*
X028221Y024417D01*
X028214Y024433D01*
X028204Y024447D01*
X028191Y024460D01*
X028177Y024470D01*
X028161Y024477D01*
X028144Y024481D01*
X028127Y024483D01*
X027627Y024483D02*
X027610Y024481D01*
X027593Y024477D01*
X027577Y024470D01*
X027563Y024460D01*
X027550Y024447D01*
X027540Y024433D01*
X027533Y024417D01*
X027529Y024400D01*
X027527Y024383D01*
X028377Y027583D02*
X025377Y027583D01*
X025377Y028983D01*
X028377Y028983D01*
X028377Y027583D01*
X029877Y029733D02*
X024977Y029733D01*
X024977Y030083D01*
X024377Y030083D01*
X024377Y029733D01*
X023627Y029733D01*
X023627Y033833D01*
X024377Y033833D01*
X024377Y033483D01*
X024977Y033483D01*
X024977Y033833D01*
X029877Y033833D01*
X029877Y029733D01*
X032277Y027783D02*
X032277Y023783D01*
X034477Y023783D01*
X034477Y027783D01*
X032277Y027783D01*
X033377Y026683D02*
X033377Y025783D01*
X033607Y025783D01*
X033377Y025783D02*
X033607Y026233D01*
X033147Y026233D01*
X033377Y025783D01*
X033147Y025783D01*
X033377Y025783D02*
X033377Y025283D01*
X035277Y023783D02*
X035277Y027783D01*
X037477Y027783D01*
X037477Y023783D01*
X035277Y023783D01*
X036377Y025283D02*
X036377Y025783D01*
X036607Y025783D01*
X036377Y025783D02*
X036147Y026233D01*
X036607Y026233D01*
X036377Y025783D01*
X036377Y026683D01*
X036377Y025783D02*
X036147Y025783D01*
X037927Y025433D02*
X038377Y025433D01*
X038377Y023683D01*
X038027Y023683D01*
X038027Y023533D01*
X038577Y023533D01*
X038577Y023433D02*
X037927Y023433D01*
X037927Y023683D01*
X038027Y023683D01*
X037927Y023683D02*
X037927Y025433D01*
X039377Y026483D02*
X039377Y029083D01*
X040377Y030133D02*
X040827Y030133D01*
X040827Y031883D01*
X040827Y032133D01*
X040177Y032133D01*
X040177Y032033D02*
X040727Y032033D01*
X040727Y031883D01*
X040377Y031883D01*
X040377Y030133D01*
X041427Y030133D02*
X041877Y030133D01*
X041877Y031883D01*
X041527Y031883D01*
X041527Y032033D01*
X042077Y032033D01*
X042077Y032133D02*
X041427Y032133D01*
X041427Y031883D01*
X041427Y030133D01*
X042877Y029083D02*
X042877Y026483D01*
X043877Y025433D02*
X044327Y025433D01*
X044327Y023683D01*
X044327Y023433D01*
X043677Y023433D01*
X043677Y023533D02*
X044227Y023533D01*
X044227Y023683D01*
X043877Y023683D01*
X043877Y025433D01*
X044227Y023683D02*
X044327Y023683D01*
X042077Y023533D02*
X041527Y023533D01*
X041527Y023683D01*
X041877Y023683D01*
X041877Y025433D01*
X041427Y025433D01*
X041427Y023683D01*
X041427Y023433D01*
X042077Y023433D01*
X041527Y023683D02*
X041427Y023683D01*
X040827Y023683D02*
X040827Y023433D01*
X040177Y023433D01*
X040177Y023533D02*
X040727Y023533D01*
X040727Y023683D01*
X040377Y023683D01*
X040377Y025433D01*
X040827Y025433D01*
X040827Y023683D01*
X040727Y023683D01*
X045907Y018847D02*
X045907Y018740D01*
X046013Y018634D01*
X046227Y018634D01*
X046334Y018527D01*
X046334Y018420D01*
X046227Y018313D01*
X046013Y018313D01*
X045907Y018420D01*
X045907Y018847D02*
X046013Y018954D01*
X046227Y018954D01*
X046334Y018847D01*
X046551Y018954D02*
X046978Y018954D01*
X046765Y018954D02*
X046765Y018313D01*
X047196Y018313D02*
X047623Y018313D01*
X047409Y018313D02*
X047409Y018954D01*
X047196Y018740D01*
X044327Y030133D02*
X043877Y030133D01*
X043877Y031883D01*
X044227Y031883D01*
X044227Y032033D01*
X043677Y032033D01*
X043677Y032133D02*
X044327Y032133D01*
X044327Y031883D01*
X044227Y031883D01*
X044327Y031883D02*
X044327Y030133D01*
X043377Y032783D02*
X043377Y040783D01*
X041877Y040783D01*
X040877Y040783D01*
X039377Y040783D01*
X039377Y032783D01*
X043377Y032783D01*
X042877Y033703D02*
X042877Y034033D01*
X042627Y034283D02*
X042877Y034533D01*
X043007Y034653D01*
X042877Y034533D02*
X042877Y034853D01*
X042627Y034283D02*
X042127Y034283D01*
X042127Y037283D01*
X042477Y037283D01*
X041437Y038098D02*
X041117Y038098D01*
X041117Y038318D01*
X041117Y038998D02*
X041117Y039218D01*
X041437Y039218D01*
X041627Y039033D02*
X041127Y040033D01*
X041127Y039533D01*
X041127Y039033D01*
X041627Y039033D01*
X041627Y039533D01*
X041627Y040033D01*
X041127Y040033D01*
X040877Y040283D02*
X040877Y040783D01*
X040877Y040283D02*
X041877Y040283D01*
X041877Y040783D01*
X042452Y041283D02*
X042552Y041283D01*
X042552Y041183D01*
X042552Y041283D02*
X042552Y041383D01*
X042552Y041283D02*
X042652Y041283D01*
X041002Y041783D02*
X041004Y041846D01*
X041010Y041908D01*
X041020Y041970D01*
X041033Y042032D01*
X041051Y042092D01*
X041072Y042151D01*
X041097Y042209D01*
X041126Y042265D01*
X041158Y042319D01*
X041193Y042371D01*
X041231Y042420D01*
X041273Y042468D01*
X041317Y042512D01*
X041365Y042554D01*
X041414Y042592D01*
X041466Y042627D01*
X041520Y042659D01*
X041576Y042688D01*
X041634Y042713D01*
X041693Y042734D01*
X041753Y042752D01*
X041815Y042765D01*
X041877Y042775D01*
X041939Y042781D01*
X042002Y042783D01*
X042065Y042781D01*
X042127Y042775D01*
X042189Y042765D01*
X042251Y042752D01*
X042311Y042734D01*
X042370Y042713D01*
X042428Y042688D01*
X042484Y042659D01*
X042538Y042627D01*
X042590Y042592D01*
X042639Y042554D01*
X042687Y042512D01*
X042731Y042468D01*
X042773Y042420D01*
X042811Y042371D01*
X042846Y042319D01*
X042878Y042265D01*
X042907Y042209D01*
X042932Y042151D01*
X042953Y042092D01*
X042971Y042032D01*
X042984Y041970D01*
X042994Y041908D01*
X043000Y041846D01*
X043002Y041783D01*
X043000Y041720D01*
X042994Y041658D01*
X042984Y041596D01*
X042971Y041534D01*
X042953Y041474D01*
X042932Y041415D01*
X042907Y041357D01*
X042878Y041301D01*
X042846Y041247D01*
X042811Y041195D01*
X042773Y041146D01*
X042731Y041098D01*
X042687Y041054D01*
X042639Y041012D01*
X042590Y040974D01*
X042538Y040939D01*
X042484Y040907D01*
X042428Y040878D01*
X042370Y040853D01*
X042311Y040832D01*
X042251Y040814D01*
X042189Y040801D01*
X042127Y040791D01*
X042065Y040785D01*
X042002Y040783D01*
X041939Y040785D01*
X041877Y040791D01*
X041815Y040801D01*
X041753Y040814D01*
X041693Y040832D01*
X041634Y040853D01*
X041576Y040878D01*
X041520Y040907D01*
X041466Y040939D01*
X041414Y040974D01*
X041365Y041012D01*
X041317Y041054D01*
X041273Y041098D01*
X041231Y041146D01*
X041193Y041195D01*
X041158Y041247D01*
X041126Y041301D01*
X041097Y041357D01*
X041072Y041415D01*
X041051Y041474D01*
X041033Y041534D01*
X041020Y041596D01*
X041010Y041658D01*
X041004Y041720D01*
X041002Y041783D01*
X039946Y042171D02*
X039946Y042896D01*
X038307Y042896D01*
X038307Y042171D01*
X039946Y042171D01*
X039377Y042533D02*
X039127Y042533D01*
X039127Y042783D01*
X039127Y042533D02*
X039127Y042283D01*
X039127Y042533D02*
X038727Y042283D01*
X038727Y042783D01*
X039127Y042533D01*
X038527Y042533D01*
X038672Y044109D02*
X038674Y044150D01*
X038680Y044191D01*
X038690Y044231D01*
X038703Y044270D01*
X038720Y044307D01*
X038741Y044343D01*
X038765Y044377D01*
X038792Y044408D01*
X038821Y044436D01*
X038854Y044462D01*
X038888Y044484D01*
X038925Y044503D01*
X038963Y044518D01*
X039003Y044530D01*
X039043Y044538D01*
X039084Y044542D01*
X039126Y044542D01*
X039167Y044538D01*
X039207Y044530D01*
X039247Y044518D01*
X039285Y044503D01*
X039321Y044484D01*
X039356Y044462D01*
X039389Y044436D01*
X039418Y044408D01*
X039445Y044377D01*
X039469Y044343D01*
X039490Y044307D01*
X039507Y044270D01*
X039520Y044231D01*
X039530Y044191D01*
X039536Y044150D01*
X039538Y044109D01*
X039536Y044068D01*
X039530Y044027D01*
X039520Y043987D01*
X039507Y043948D01*
X039490Y043911D01*
X039469Y043875D01*
X039445Y043841D01*
X039418Y043810D01*
X039389Y043782D01*
X039356Y043756D01*
X039322Y043734D01*
X039285Y043715D01*
X039247Y043700D01*
X039207Y043688D01*
X039167Y043680D01*
X039126Y043676D01*
X039084Y043676D01*
X039043Y043680D01*
X039003Y043688D01*
X038963Y043700D01*
X038925Y043715D01*
X038889Y043734D01*
X038854Y043756D01*
X038821Y043782D01*
X038792Y043810D01*
X038765Y043841D01*
X038741Y043875D01*
X038720Y043911D01*
X038703Y043948D01*
X038690Y043987D01*
X038680Y044027D01*
X038674Y044068D01*
X038672Y044109D01*
X037702Y044258D02*
X037702Y045558D01*
X037700Y045584D01*
X037695Y045610D01*
X037687Y045635D01*
X037675Y045658D01*
X037661Y045680D01*
X037643Y045699D01*
X037624Y045717D01*
X037602Y045731D01*
X037579Y045743D01*
X037554Y045751D01*
X037528Y045756D01*
X037502Y045758D01*
X037252Y045408D02*
X037252Y045038D01*
X037252Y044788D02*
X037252Y044408D01*
X037502Y044058D02*
X037528Y044060D01*
X037554Y044065D01*
X037579Y044073D01*
X037602Y044085D01*
X037624Y044099D01*
X037643Y044117D01*
X037661Y044136D01*
X037675Y044158D01*
X037687Y044181D01*
X037695Y044206D01*
X037700Y044232D01*
X037702Y044258D01*
X037002Y044058D02*
X036976Y044060D01*
X036950Y044065D01*
X036925Y044073D01*
X036902Y044085D01*
X036880Y044099D01*
X036861Y044117D01*
X036843Y044136D01*
X036829Y044158D01*
X036817Y044181D01*
X036809Y044206D01*
X036804Y044232D01*
X036802Y044258D01*
X036802Y045558D01*
X036804Y045584D01*
X036809Y045610D01*
X036817Y045635D01*
X036829Y045658D01*
X036843Y045680D01*
X036861Y045699D01*
X036880Y045717D01*
X036902Y045731D01*
X036925Y045743D01*
X036950Y045751D01*
X036976Y045756D01*
X037002Y045758D01*
X034877Y045033D02*
X034877Y046533D01*
X034627Y046783D01*
X034127Y046783D01*
X033877Y046533D01*
X033627Y046783D01*
X033127Y046783D01*
X032877Y046533D01*
X032627Y046783D01*
X032127Y046783D01*
X031877Y046533D01*
X031877Y045033D01*
X032127Y044783D01*
X032627Y044783D01*
X032877Y045033D01*
X033127Y044783D01*
X033627Y044783D01*
X033877Y045033D01*
X034127Y044783D01*
X034627Y044783D01*
X034877Y045033D01*
X035677Y042383D02*
X035677Y040183D01*
X021077Y040183D01*
X021077Y041033D01*
X021107Y041035D01*
X021137Y041040D01*
X021166Y041049D01*
X021193Y041062D01*
X021219Y041077D01*
X021243Y041096D01*
X021264Y041117D01*
X021283Y041141D01*
X021298Y041167D01*
X021311Y041194D01*
X021320Y041223D01*
X021325Y041253D01*
X021327Y041283D01*
X021325Y041313D01*
X021320Y041343D01*
X021311Y041372D01*
X021298Y041399D01*
X021283Y041425D01*
X021264Y041449D01*
X021243Y041470D01*
X021219Y041489D01*
X021193Y041504D01*
X021166Y041517D01*
X021137Y041526D01*
X021107Y041531D01*
X021077Y041533D01*
X021077Y042383D01*
X035677Y042383D01*
X036027Y041383D02*
X036027Y041283D01*
X036077Y041233D01*
X036077Y040333D01*
X036027Y040283D01*
X036027Y040183D01*
X036029Y040166D01*
X036033Y040149D01*
X036040Y040133D01*
X036050Y040119D01*
X036063Y040106D01*
X036077Y040096D01*
X036093Y040089D01*
X036110Y040085D01*
X036127Y040083D01*
X036627Y040083D02*
X036644Y040085D01*
X036661Y040089D01*
X036677Y040096D01*
X036691Y040106D01*
X036704Y040119D01*
X036714Y040133D01*
X036721Y040149D01*
X036725Y040166D01*
X036727Y040183D01*
X036727Y040283D01*
X036677Y040333D01*
X036677Y041233D01*
X036727Y041283D01*
X036727Y041383D01*
X036725Y041400D01*
X036721Y041417D01*
X036714Y041433D01*
X036704Y041447D01*
X036691Y041460D01*
X036677Y041470D01*
X036661Y041477D01*
X036644Y041481D01*
X036627Y041483D01*
X036127Y041483D02*
X036110Y041481D01*
X036093Y041477D01*
X036077Y041470D01*
X036063Y041460D01*
X036050Y041447D01*
X036040Y041433D01*
X036033Y041417D01*
X036029Y041400D01*
X036027Y041383D01*
X036127Y037983D02*
X036144Y037981D01*
X036161Y037977D01*
X036177Y037970D01*
X036191Y037960D01*
X036204Y037947D01*
X036214Y037933D01*
X036221Y037917D01*
X036225Y037900D01*
X036227Y037883D01*
X036227Y037783D01*
X036177Y037733D01*
X036177Y036833D01*
X036227Y036783D01*
X036227Y036683D01*
X036225Y036666D01*
X036221Y036649D01*
X036214Y036633D01*
X036204Y036619D01*
X036191Y036606D01*
X036177Y036596D01*
X036161Y036589D01*
X036144Y036585D01*
X036127Y036583D01*
X036527Y036283D02*
X036527Y036183D01*
X036529Y036166D01*
X036533Y036149D01*
X036540Y036133D01*
X036550Y036119D01*
X036563Y036106D01*
X036577Y036096D01*
X036593Y036089D01*
X036610Y036085D01*
X036627Y036083D01*
X036527Y036283D02*
X036577Y036333D01*
X036577Y037233D01*
X036527Y037283D01*
X036527Y037383D01*
X036529Y037400D01*
X036533Y037417D01*
X036540Y037433D01*
X036550Y037447D01*
X036563Y037460D01*
X036577Y037470D01*
X036593Y037477D01*
X036610Y037481D01*
X036627Y037483D01*
X037127Y037483D02*
X037144Y037481D01*
X037161Y037477D01*
X037177Y037470D01*
X037191Y037460D01*
X037204Y037447D01*
X037214Y037433D01*
X037221Y037417D01*
X037225Y037400D01*
X037227Y037383D01*
X037227Y037283D01*
X037177Y037233D01*
X037177Y036333D01*
X037227Y036283D01*
X037227Y036183D01*
X037225Y036166D01*
X037221Y036149D01*
X037214Y036133D01*
X037204Y036119D01*
X037191Y036106D01*
X037177Y036096D01*
X037161Y036089D01*
X037144Y036085D01*
X037127Y036083D01*
X035627Y036583D02*
X035610Y036585D01*
X035593Y036589D01*
X035577Y036596D01*
X035563Y036606D01*
X035550Y036619D01*
X035540Y036633D01*
X035533Y036649D01*
X035529Y036666D01*
X035527Y036683D01*
X035527Y036783D01*
X035577Y036833D01*
X035577Y037733D01*
X035527Y037783D01*
X035527Y037883D01*
X035529Y037900D01*
X035533Y037917D01*
X035540Y037933D01*
X035550Y037947D01*
X035563Y037960D01*
X035577Y037970D01*
X035593Y037977D01*
X035610Y037981D01*
X035627Y037983D01*
X035227Y037883D02*
X035227Y037783D01*
X035177Y037733D01*
X035177Y036833D01*
X035227Y036783D01*
X035227Y036683D01*
X035225Y036666D01*
X035221Y036649D01*
X035214Y036633D01*
X035204Y036619D01*
X035191Y036606D01*
X035177Y036596D01*
X035161Y036589D01*
X035144Y036585D01*
X035127Y036583D01*
X034627Y036583D02*
X034610Y036585D01*
X034593Y036589D01*
X034577Y036596D01*
X034563Y036606D01*
X034550Y036619D01*
X034540Y036633D01*
X034533Y036649D01*
X034529Y036666D01*
X034527Y036683D01*
X034527Y036783D01*
X034577Y036833D01*
X034577Y037733D01*
X034527Y037783D01*
X034527Y037883D01*
X034529Y037900D01*
X034533Y037917D01*
X034540Y037933D01*
X034550Y037947D01*
X034563Y037960D01*
X034577Y037970D01*
X034593Y037977D01*
X034610Y037981D01*
X034627Y037983D01*
X035127Y037983D02*
X035144Y037981D01*
X035161Y037977D01*
X035177Y037970D01*
X035191Y037960D01*
X035204Y037947D01*
X035214Y037933D01*
X035221Y037917D01*
X035225Y037900D01*
X035227Y037883D01*
X033977Y037883D02*
X033977Y037783D01*
X033927Y037733D01*
X033927Y036833D01*
X033977Y036783D01*
X033977Y036683D01*
X033975Y036666D01*
X033971Y036649D01*
X033964Y036633D01*
X033954Y036619D01*
X033941Y036606D01*
X033927Y036596D01*
X033911Y036589D01*
X033894Y036585D01*
X033877Y036583D01*
X033377Y036583D02*
X033360Y036585D01*
X033343Y036589D01*
X033327Y036596D01*
X033313Y036606D01*
X033300Y036619D01*
X033290Y036633D01*
X033283Y036649D01*
X033279Y036666D01*
X033277Y036683D01*
X033277Y036783D01*
X033327Y036833D01*
X033327Y037733D01*
X033277Y037783D01*
X033277Y037883D01*
X033279Y037900D01*
X033283Y037917D01*
X033290Y037933D01*
X033300Y037947D01*
X033313Y037960D01*
X033327Y037970D01*
X033343Y037977D01*
X033360Y037981D01*
X033377Y037983D01*
X033877Y037983D02*
X033894Y037981D01*
X033911Y037977D01*
X033927Y037970D01*
X033941Y037960D01*
X033954Y037947D01*
X033964Y037933D01*
X033971Y037917D01*
X033975Y037900D01*
X033977Y037883D01*
X030777Y037483D02*
X030777Y035333D01*
X030775Y035316D01*
X030771Y035299D01*
X030764Y035283D01*
X030754Y035269D01*
X030741Y035256D01*
X030727Y035246D01*
X030711Y035239D01*
X030694Y035235D01*
X030677Y035233D01*
X030077Y035233D01*
X030060Y035235D01*
X030043Y035239D01*
X030027Y035246D01*
X030013Y035256D01*
X030000Y035269D01*
X029990Y035283D01*
X029983Y035299D01*
X029979Y035316D01*
X029977Y035333D01*
X029977Y037483D01*
X030027Y037483D01*
X030727Y037483D01*
X030777Y037483D01*
X030727Y037483D02*
X030727Y037633D01*
X030027Y037633D01*
X030027Y037483D01*
X030377Y036833D02*
X030377Y036633D01*
X030177Y036633D01*
X030177Y036483D02*
X030177Y036333D01*
X030577Y036333D01*
X030577Y036483D01*
X030177Y036483D01*
X030377Y036633D02*
X030577Y036633D01*
X030577Y036183D02*
X030377Y036183D01*
X030177Y036183D01*
X030377Y036183D02*
X030377Y035983D01*
X033077Y034633D02*
X033077Y034383D01*
X033127Y034333D01*
X033127Y031233D01*
X033077Y031183D01*
X033077Y030933D01*
X033079Y030910D01*
X033084Y030887D01*
X033093Y030865D01*
X033106Y030845D01*
X033121Y030827D01*
X033139Y030812D01*
X033159Y030799D01*
X033181Y030790D01*
X033204Y030785D01*
X033227Y030783D01*
X034527Y030783D01*
X034550Y030785D01*
X034573Y030790D01*
X034595Y030799D01*
X034615Y030812D01*
X034633Y030827D01*
X034648Y030845D01*
X034661Y030865D01*
X034670Y030887D01*
X034675Y030910D01*
X034677Y030933D01*
X034677Y031183D01*
X034627Y031233D01*
X034627Y034333D01*
X034677Y034383D01*
X034677Y034633D01*
X034675Y034656D01*
X034670Y034679D01*
X034661Y034701D01*
X034648Y034721D01*
X034633Y034739D01*
X034615Y034754D01*
X034595Y034767D01*
X034573Y034776D01*
X034550Y034781D01*
X034527Y034783D01*
X033227Y034783D01*
X033204Y034781D01*
X033181Y034776D01*
X033159Y034767D01*
X033139Y034754D01*
X033121Y034739D01*
X033106Y034721D01*
X033093Y034701D01*
X033084Y034679D01*
X033079Y034656D01*
X033077Y034633D01*
X035827Y031883D02*
X035827Y031783D01*
X035927Y031783D01*
X035827Y031783D02*
X035827Y031683D01*
X035827Y031783D02*
X035727Y031783D01*
X035377Y031283D02*
X035379Y031346D01*
X035385Y031408D01*
X035395Y031470D01*
X035408Y031532D01*
X035426Y031592D01*
X035447Y031651D01*
X035472Y031709D01*
X035501Y031765D01*
X035533Y031819D01*
X035568Y031871D01*
X035606Y031920D01*
X035648Y031968D01*
X035692Y032012D01*
X035740Y032054D01*
X035789Y032092D01*
X035841Y032127D01*
X035895Y032159D01*
X035951Y032188D01*
X036009Y032213D01*
X036068Y032234D01*
X036128Y032252D01*
X036190Y032265D01*
X036252Y032275D01*
X036314Y032281D01*
X036377Y032283D01*
X036440Y032281D01*
X036502Y032275D01*
X036564Y032265D01*
X036626Y032252D01*
X036686Y032234D01*
X036745Y032213D01*
X036803Y032188D01*
X036859Y032159D01*
X036913Y032127D01*
X036965Y032092D01*
X037014Y032054D01*
X037062Y032012D01*
X037106Y031968D01*
X037148Y031920D01*
X037186Y031871D01*
X037221Y031819D01*
X037253Y031765D01*
X037282Y031709D01*
X037307Y031651D01*
X037328Y031592D01*
X037346Y031532D01*
X037359Y031470D01*
X037369Y031408D01*
X037375Y031346D01*
X037377Y031283D01*
X037375Y031220D01*
X037369Y031158D01*
X037359Y031096D01*
X037346Y031034D01*
X037328Y030974D01*
X037307Y030915D01*
X037282Y030857D01*
X037253Y030801D01*
X037221Y030747D01*
X037186Y030695D01*
X037148Y030646D01*
X037106Y030598D01*
X037062Y030554D01*
X037014Y030512D01*
X036965Y030474D01*
X036913Y030439D01*
X036859Y030407D01*
X036803Y030378D01*
X036745Y030353D01*
X036686Y030332D01*
X036626Y030314D01*
X036564Y030301D01*
X036502Y030291D01*
X036440Y030285D01*
X036377Y030283D01*
X036314Y030285D01*
X036252Y030291D01*
X036190Y030301D01*
X036128Y030314D01*
X036068Y030332D01*
X036009Y030353D01*
X035951Y030378D01*
X035895Y030407D01*
X035841Y030439D01*
X035789Y030474D01*
X035740Y030512D01*
X035692Y030554D01*
X035648Y030598D01*
X035606Y030646D01*
X035568Y030695D01*
X035533Y030747D01*
X035501Y030801D01*
X035472Y030857D01*
X035447Y030915D01*
X035426Y030974D01*
X035408Y031034D01*
X035395Y031096D01*
X035385Y031158D01*
X035379Y031220D01*
X035377Y031283D01*
X037927Y031883D02*
X037927Y030133D01*
X038377Y030133D01*
X038377Y031883D01*
X038027Y031883D01*
X038027Y032033D01*
X038577Y032033D01*
X038577Y032133D02*
X037927Y032133D01*
X037927Y031883D01*
X038027Y031883D01*
X039877Y033703D02*
X039877Y034033D01*
X040127Y034283D02*
X039877Y034533D01*
X039747Y034653D01*
X039877Y034533D02*
X039877Y034853D01*
X040127Y034283D02*
X040627Y034283D01*
X040627Y037283D01*
X040277Y037283D01*
X039877Y039533D02*
X039877Y039883D01*
X039877Y039533D02*
X041127Y039533D01*
X041627Y039533D02*
X042877Y039533D01*
X042877Y039883D01*
X042912Y042773D02*
X042692Y042773D01*
X042692Y043093D01*
X043592Y042773D02*
X043812Y042773D01*
X043812Y043093D01*
X043812Y045398D02*
X043592Y045398D01*
X043812Y045398D02*
X043812Y045718D01*
X042912Y045398D02*
X042692Y045398D01*
X042692Y045718D01*
X041527Y031883D02*
X041427Y031883D01*
X040827Y031883D02*
X040727Y031883D01*
X027477Y038333D02*
X027377Y038333D01*
X027377Y038233D01*
X027377Y038333D02*
X027277Y038333D01*
X027377Y038333D02*
X027377Y038433D01*
X025877Y037783D02*
X025879Y037846D01*
X025885Y037908D01*
X025895Y037970D01*
X025908Y038032D01*
X025926Y038092D01*
X025947Y038151D01*
X025972Y038209D01*
X026001Y038265D01*
X026033Y038319D01*
X026068Y038371D01*
X026106Y038420D01*
X026148Y038468D01*
X026192Y038512D01*
X026240Y038554D01*
X026289Y038592D01*
X026341Y038627D01*
X026395Y038659D01*
X026451Y038688D01*
X026509Y038713D01*
X026568Y038734D01*
X026628Y038752D01*
X026690Y038765D01*
X026752Y038775D01*
X026814Y038781D01*
X026877Y038783D01*
X026940Y038781D01*
X027002Y038775D01*
X027064Y038765D01*
X027126Y038752D01*
X027186Y038734D01*
X027245Y038713D01*
X027303Y038688D01*
X027359Y038659D01*
X027413Y038627D01*
X027465Y038592D01*
X027514Y038554D01*
X027562Y038512D01*
X027606Y038468D01*
X027648Y038420D01*
X027686Y038371D01*
X027721Y038319D01*
X027753Y038265D01*
X027782Y038209D01*
X027807Y038151D01*
X027828Y038092D01*
X027846Y038032D01*
X027859Y037970D01*
X027869Y037908D01*
X027875Y037846D01*
X027877Y037783D01*
X027875Y037720D01*
X027869Y037658D01*
X027859Y037596D01*
X027846Y037534D01*
X027828Y037474D01*
X027807Y037415D01*
X027782Y037357D01*
X027753Y037301D01*
X027721Y037247D01*
X027686Y037195D01*
X027648Y037146D01*
X027606Y037098D01*
X027562Y037054D01*
X027514Y037012D01*
X027465Y036974D01*
X027413Y036939D01*
X027359Y036907D01*
X027303Y036878D01*
X027245Y036853D01*
X027186Y036832D01*
X027126Y036814D01*
X027064Y036801D01*
X027002Y036791D01*
X026940Y036785D01*
X026877Y036783D01*
X026814Y036785D01*
X026752Y036791D01*
X026690Y036801D01*
X026628Y036814D01*
X026568Y036832D01*
X026509Y036853D01*
X026451Y036878D01*
X026395Y036907D01*
X026341Y036939D01*
X026289Y036974D01*
X026240Y037012D01*
X026192Y037054D01*
X026148Y037098D01*
X026106Y037146D01*
X026068Y037195D01*
X026033Y037247D01*
X026001Y037301D01*
X025972Y037357D01*
X025947Y037415D01*
X025926Y037474D01*
X025908Y037534D01*
X025895Y037596D01*
X025885Y037658D01*
X025879Y037720D01*
X025877Y037783D01*
X025227Y036383D02*
X025227Y036283D01*
X025177Y036233D01*
X025177Y035333D01*
X025227Y035283D01*
X025227Y035183D01*
X025225Y035166D01*
X025221Y035149D01*
X025214Y035133D01*
X025204Y035119D01*
X025191Y035106D01*
X025177Y035096D01*
X025161Y035089D01*
X025144Y035085D01*
X025127Y035083D01*
X024627Y035083D02*
X024610Y035085D01*
X024593Y035089D01*
X024577Y035096D01*
X024563Y035106D01*
X024550Y035119D01*
X024540Y035133D01*
X024533Y035149D01*
X024529Y035166D01*
X024527Y035183D01*
X024527Y035283D01*
X024577Y035333D01*
X024577Y036233D01*
X024527Y036283D01*
X024527Y036383D01*
X024529Y036400D01*
X024533Y036417D01*
X024540Y036433D01*
X024550Y036447D01*
X024563Y036460D01*
X024577Y036470D01*
X024593Y036477D01*
X024610Y036481D01*
X024627Y036483D01*
X025127Y036483D02*
X025144Y036481D01*
X025161Y036477D01*
X025177Y036470D01*
X025191Y036460D01*
X025204Y036447D01*
X025214Y036433D01*
X025221Y036417D01*
X025225Y036400D01*
X025227Y036383D01*
X023727Y036383D02*
X023727Y036283D01*
X023677Y036233D01*
X023677Y035333D01*
X023727Y035283D01*
X023727Y035183D01*
X023725Y035166D01*
X023721Y035149D01*
X023714Y035133D01*
X023704Y035119D01*
X023691Y035106D01*
X023677Y035096D01*
X023661Y035089D01*
X023644Y035085D01*
X023627Y035083D01*
X023127Y035083D02*
X023110Y035085D01*
X023093Y035089D01*
X023077Y035096D01*
X023063Y035106D01*
X023050Y035119D01*
X023040Y035133D01*
X023033Y035149D01*
X023029Y035166D01*
X023027Y035183D01*
X023027Y035283D01*
X023077Y035333D01*
X023077Y036233D01*
X023027Y036283D01*
X023027Y036383D01*
X023029Y036400D01*
X023033Y036417D01*
X023040Y036433D01*
X023050Y036447D01*
X023063Y036460D01*
X023077Y036470D01*
X023093Y036477D01*
X023110Y036481D01*
X023127Y036483D01*
X023627Y036483D02*
X023644Y036481D01*
X023661Y036477D01*
X023677Y036470D01*
X023691Y036460D01*
X023704Y036447D01*
X023714Y036433D01*
X023721Y036417D01*
X023725Y036400D01*
X023727Y036383D01*
X023477Y037433D02*
X023377Y037433D01*
X023327Y037483D01*
X022427Y037483D01*
X022377Y037433D01*
X022277Y037433D01*
X022260Y037435D01*
X022243Y037439D01*
X022227Y037446D01*
X022213Y037456D01*
X022200Y037469D01*
X022190Y037483D01*
X022183Y037499D01*
X022179Y037516D01*
X022177Y037533D01*
X022177Y038033D02*
X022179Y038050D01*
X022183Y038067D01*
X022190Y038083D01*
X022200Y038097D01*
X022213Y038110D01*
X022227Y038120D01*
X022243Y038127D01*
X022260Y038131D01*
X022277Y038133D01*
X022377Y038133D01*
X022427Y038083D01*
X023327Y038083D01*
X023377Y038133D01*
X023477Y038133D01*
X023494Y038131D01*
X023511Y038127D01*
X023527Y038120D01*
X023541Y038110D01*
X023554Y038097D01*
X023564Y038083D01*
X023571Y038067D01*
X023575Y038050D01*
X023577Y038033D01*
X023577Y037533D02*
X023575Y037516D01*
X023571Y037499D01*
X023564Y037483D01*
X023554Y037469D01*
X023541Y037456D01*
X023527Y037446D01*
X023511Y037439D01*
X023494Y037435D01*
X023477Y037433D01*
X021877Y035433D02*
X021877Y033133D01*
X013877Y033133D01*
X013877Y033883D01*
X013916Y033885D01*
X013955Y033891D01*
X013993Y033900D01*
X014030Y033913D01*
X014066Y033930D01*
X014099Y033950D01*
X014131Y033974D01*
X014160Y034000D01*
X014186Y034029D01*
X014210Y034061D01*
X014230Y034094D01*
X014247Y034130D01*
X014260Y034167D01*
X014269Y034205D01*
X014275Y034244D01*
X014277Y034283D01*
X014275Y034322D01*
X014269Y034361D01*
X014260Y034399D01*
X014247Y034436D01*
X014230Y034472D01*
X014210Y034505D01*
X014186Y034537D01*
X014160Y034566D01*
X014131Y034592D01*
X014099Y034616D01*
X014066Y034636D01*
X014030Y034653D01*
X013993Y034666D01*
X013955Y034675D01*
X013916Y034681D01*
X013877Y034683D01*
X013877Y035433D01*
X021877Y035433D01*
X026277Y034733D02*
X026377Y034733D01*
X026377Y034833D01*
X026377Y034733D02*
X026477Y034733D01*
X026377Y034733D02*
X026377Y034633D01*
X025877Y035283D02*
X025879Y035346D01*
X025885Y035408D01*
X025895Y035470D01*
X025908Y035532D01*
X025926Y035592D01*
X025947Y035651D01*
X025972Y035709D01*
X026001Y035765D01*
X026033Y035819D01*
X026068Y035871D01*
X026106Y035920D01*
X026148Y035968D01*
X026192Y036012D01*
X026240Y036054D01*
X026289Y036092D01*
X026341Y036127D01*
X026395Y036159D01*
X026451Y036188D01*
X026509Y036213D01*
X026568Y036234D01*
X026628Y036252D01*
X026690Y036265D01*
X026752Y036275D01*
X026814Y036281D01*
X026877Y036283D01*
X026940Y036281D01*
X027002Y036275D01*
X027064Y036265D01*
X027126Y036252D01*
X027186Y036234D01*
X027245Y036213D01*
X027303Y036188D01*
X027359Y036159D01*
X027413Y036127D01*
X027465Y036092D01*
X027514Y036054D01*
X027562Y036012D01*
X027606Y035968D01*
X027648Y035920D01*
X027686Y035871D01*
X027721Y035819D01*
X027753Y035765D01*
X027782Y035709D01*
X027807Y035651D01*
X027828Y035592D01*
X027846Y035532D01*
X027859Y035470D01*
X027869Y035408D01*
X027875Y035346D01*
X027877Y035283D01*
X027875Y035220D01*
X027869Y035158D01*
X027859Y035096D01*
X027846Y035034D01*
X027828Y034974D01*
X027807Y034915D01*
X027782Y034857D01*
X027753Y034801D01*
X027721Y034747D01*
X027686Y034695D01*
X027648Y034646D01*
X027606Y034598D01*
X027562Y034554D01*
X027514Y034512D01*
X027465Y034474D01*
X027413Y034439D01*
X027359Y034407D01*
X027303Y034378D01*
X027245Y034353D01*
X027186Y034332D01*
X027126Y034314D01*
X027064Y034301D01*
X027002Y034291D01*
X026940Y034285D01*
X026877Y034283D01*
X026814Y034285D01*
X026752Y034291D01*
X026690Y034301D01*
X026628Y034314D01*
X026568Y034332D01*
X026509Y034353D01*
X026451Y034378D01*
X026395Y034407D01*
X026341Y034439D01*
X026289Y034474D01*
X026240Y034512D01*
X026192Y034554D01*
X026148Y034598D01*
X026106Y034646D01*
X026068Y034695D01*
X026033Y034747D01*
X026001Y034801D01*
X025972Y034857D01*
X025947Y034915D01*
X025926Y034974D01*
X025908Y035034D01*
X025895Y035096D01*
X025885Y035158D01*
X025879Y035220D01*
X025877Y035283D01*
X024267Y031783D02*
X024269Y031836D01*
X024275Y031889D01*
X024285Y031941D01*
X024299Y031992D01*
X024316Y032042D01*
X024337Y032091D01*
X024362Y032138D01*
X024390Y032183D01*
X024422Y032226D01*
X024457Y032266D01*
X024494Y032303D01*
X024534Y032338D01*
X024577Y032370D01*
X024622Y032398D01*
X024669Y032423D01*
X024718Y032444D01*
X024768Y032461D01*
X024819Y032475D01*
X024871Y032485D01*
X024924Y032491D01*
X024977Y032493D01*
X025030Y032491D01*
X025083Y032485D01*
X025135Y032475D01*
X025186Y032461D01*
X025236Y032444D01*
X025285Y032423D01*
X025332Y032398D01*
X025377Y032370D01*
X025420Y032338D01*
X025460Y032303D01*
X025497Y032266D01*
X025532Y032226D01*
X025564Y032183D01*
X025592Y032138D01*
X025617Y032091D01*
X025638Y032042D01*
X025655Y031992D01*
X025669Y031941D01*
X025679Y031889D01*
X025685Y031836D01*
X025687Y031783D01*
X025685Y031730D01*
X025679Y031677D01*
X025669Y031625D01*
X025655Y031574D01*
X025638Y031524D01*
X025617Y031475D01*
X025592Y031428D01*
X025564Y031383D01*
X025532Y031340D01*
X025497Y031300D01*
X025460Y031263D01*
X025420Y031228D01*
X025377Y031196D01*
X025332Y031168D01*
X025285Y031143D01*
X025236Y031122D01*
X025186Y031105D01*
X025135Y031091D01*
X025083Y031081D01*
X025030Y031075D01*
X024977Y031073D01*
X024924Y031075D01*
X024871Y031081D01*
X024819Y031091D01*
X024768Y031105D01*
X024718Y031122D01*
X024669Y031143D01*
X024622Y031168D01*
X024577Y031196D01*
X024534Y031228D01*
X024494Y031263D01*
X024457Y031300D01*
X024422Y031340D01*
X024390Y031383D01*
X024362Y031428D01*
X024337Y031475D01*
X024316Y031524D01*
X024299Y031574D01*
X024285Y031625D01*
X024275Y031677D01*
X024269Y031730D01*
X024267Y031783D01*
X019477Y029633D02*
X019377Y029633D01*
X019327Y029583D01*
X018427Y029583D01*
X018377Y029633D01*
X018277Y029633D01*
X018260Y029631D01*
X018243Y029627D01*
X018227Y029620D01*
X018213Y029610D01*
X018200Y029597D01*
X018190Y029583D01*
X018183Y029567D01*
X018179Y029550D01*
X018177Y029533D01*
X018177Y029033D02*
X018179Y029016D01*
X018183Y028999D01*
X018190Y028983D01*
X018200Y028969D01*
X018213Y028956D01*
X018227Y028946D01*
X018243Y028939D01*
X018260Y028935D01*
X018277Y028933D01*
X018377Y028933D01*
X018427Y028983D01*
X019327Y028983D01*
X019377Y028933D01*
X019477Y028933D01*
X019494Y028935D01*
X019511Y028939D01*
X019527Y028946D01*
X019541Y028956D01*
X019554Y028969D01*
X019564Y028983D01*
X019571Y028999D01*
X019575Y029016D01*
X019577Y029033D01*
X019577Y029533D02*
X019575Y029550D01*
X019571Y029567D01*
X019564Y029583D01*
X019554Y029597D01*
X019541Y029610D01*
X019527Y029620D01*
X019511Y029627D01*
X019494Y029631D01*
X019477Y029633D01*
X018377Y027433D02*
X016377Y027433D01*
X016377Y026683D01*
X016416Y026681D01*
X016455Y026675D01*
X016493Y026666D01*
X016530Y026653D01*
X016566Y026636D01*
X016599Y026616D01*
X016631Y026592D01*
X016660Y026566D01*
X016686Y026537D01*
X016710Y026505D01*
X016730Y026472D01*
X016747Y026436D01*
X016760Y026399D01*
X016769Y026361D01*
X016775Y026322D01*
X016777Y026283D01*
X016775Y026244D01*
X016769Y026205D01*
X016760Y026167D01*
X016747Y026130D01*
X016730Y026094D01*
X016710Y026061D01*
X016686Y026029D01*
X016660Y026000D01*
X016631Y025974D01*
X016599Y025950D01*
X016566Y025930D01*
X016530Y025913D01*
X016493Y025900D01*
X016455Y025891D01*
X016416Y025885D01*
X016377Y025883D01*
X016377Y025133D01*
X018377Y025133D01*
X018377Y027433D01*
X016477Y028933D02*
X016377Y028933D01*
X016327Y028983D01*
X015427Y028983D01*
X015377Y028933D01*
X015277Y028933D01*
X015260Y028935D01*
X015243Y028939D01*
X015227Y028946D01*
X015213Y028956D01*
X015200Y028969D01*
X015190Y028983D01*
X015183Y028999D01*
X015179Y029016D01*
X015177Y029033D01*
X015177Y029533D02*
X015179Y029550D01*
X015183Y029567D01*
X015190Y029583D01*
X015200Y029597D01*
X015213Y029610D01*
X015227Y029620D01*
X015243Y029627D01*
X015260Y029631D01*
X015277Y029633D01*
X015377Y029633D01*
X015427Y029583D01*
X016327Y029583D01*
X016377Y029633D01*
X016477Y029633D01*
X016494Y029631D01*
X016511Y029627D01*
X016527Y029620D01*
X016541Y029610D01*
X016554Y029597D01*
X016564Y029583D01*
X016571Y029567D01*
X016575Y029550D01*
X016577Y029533D01*
X016577Y029033D02*
X016575Y029016D01*
X016571Y028999D01*
X016564Y028983D01*
X016554Y028969D01*
X016541Y028956D01*
X016527Y028946D01*
X016511Y028939D01*
X016494Y028935D01*
X016477Y028933D01*
X014827Y037133D02*
X014827Y038433D01*
X014825Y038459D01*
X014820Y038485D01*
X014812Y038510D01*
X014800Y038533D01*
X014786Y038555D01*
X014768Y038574D01*
X014749Y038592D01*
X014727Y038606D01*
X014704Y038618D01*
X014679Y038626D01*
X014653Y038631D01*
X014627Y038633D01*
X014377Y038283D02*
X014377Y037903D01*
X014377Y037653D02*
X014377Y037283D01*
X014627Y036933D02*
X014653Y036935D01*
X014679Y036940D01*
X014704Y036948D01*
X014727Y036960D01*
X014749Y036974D01*
X014768Y036992D01*
X014786Y037011D01*
X014800Y037033D01*
X014812Y037056D01*
X014820Y037081D01*
X014825Y037107D01*
X014827Y037133D01*
X014127Y036933D02*
X014101Y036935D01*
X014075Y036940D01*
X014050Y036948D01*
X014027Y036960D01*
X014005Y036974D01*
X013986Y036992D01*
X013968Y037011D01*
X013954Y037033D01*
X013942Y037056D01*
X013934Y037081D01*
X013929Y037107D01*
X013927Y037133D01*
X013927Y038433D01*
X013929Y038459D01*
X013934Y038485D01*
X013942Y038510D01*
X013954Y038533D01*
X013968Y038555D01*
X013986Y038574D01*
X014005Y038592D01*
X014027Y038606D01*
X014050Y038618D01*
X014075Y038626D01*
X014101Y038631D01*
X014127Y038633D01*
X020652Y044683D02*
X020652Y044783D01*
X020702Y044833D01*
X020702Y045733D01*
X020652Y045783D01*
X020652Y045883D01*
X020654Y045900D01*
X020658Y045917D01*
X020665Y045933D01*
X020675Y045947D01*
X020688Y045960D01*
X020702Y045970D01*
X020718Y045977D01*
X020735Y045981D01*
X020752Y045983D01*
X021252Y045983D02*
X021269Y045981D01*
X021286Y045977D01*
X021302Y045970D01*
X021316Y045960D01*
X021329Y045947D01*
X021339Y045933D01*
X021346Y045917D01*
X021350Y045900D01*
X021352Y045883D01*
X021352Y045783D01*
X021302Y045733D01*
X021302Y044833D01*
X021352Y044783D01*
X021352Y044683D01*
X021350Y044666D01*
X021346Y044649D01*
X021339Y044633D01*
X021329Y044619D01*
X021316Y044606D01*
X021302Y044596D01*
X021286Y044589D01*
X021269Y044585D01*
X021252Y044583D01*
X021527Y044683D02*
X021527Y044783D01*
X021577Y044833D01*
X021577Y045733D01*
X021527Y045783D01*
X021527Y045883D01*
X021529Y045900D01*
X021533Y045917D01*
X021540Y045933D01*
X021550Y045947D01*
X021563Y045960D01*
X021577Y045970D01*
X021593Y045977D01*
X021610Y045981D01*
X021627Y045983D01*
X022127Y045983D02*
X022144Y045981D01*
X022161Y045977D01*
X022177Y045970D01*
X022191Y045960D01*
X022204Y045947D01*
X022214Y045933D01*
X022221Y045917D01*
X022225Y045900D01*
X022227Y045883D01*
X022227Y045783D01*
X022177Y045733D01*
X022177Y044833D01*
X022227Y044783D01*
X022227Y044683D01*
X022225Y044666D01*
X022221Y044649D01*
X022214Y044633D01*
X022204Y044619D01*
X022191Y044606D01*
X022177Y044596D01*
X022161Y044589D01*
X022144Y044585D01*
X022127Y044583D01*
X021627Y044583D02*
X021610Y044585D01*
X021593Y044589D01*
X021577Y044596D01*
X021563Y044606D01*
X021550Y044619D01*
X021540Y044633D01*
X021533Y044649D01*
X021529Y044666D01*
X021527Y044683D01*
X020752Y044583D02*
X020735Y044585D01*
X020718Y044589D01*
X020702Y044596D01*
X020688Y044606D01*
X020675Y044619D01*
X020665Y044633D01*
X020658Y044649D01*
X020654Y044666D01*
X020652Y044683D01*
X018977Y044933D02*
X018977Y045033D01*
X018927Y045083D01*
X018927Y045983D01*
X018977Y046033D01*
X018977Y046133D01*
X018975Y046150D01*
X018971Y046167D01*
X018964Y046183D01*
X018954Y046197D01*
X018941Y046210D01*
X018927Y046220D01*
X018911Y046227D01*
X018894Y046231D01*
X018877Y046233D01*
X018377Y046233D02*
X018360Y046231D01*
X018343Y046227D01*
X018327Y046220D01*
X018313Y046210D01*
X018300Y046197D01*
X018290Y046183D01*
X018283Y046167D01*
X018279Y046150D01*
X018277Y046133D01*
X018277Y046033D01*
X018327Y045983D01*
X018327Y045083D01*
X018277Y045033D01*
X018277Y044933D01*
X018279Y044916D01*
X018283Y044899D01*
X018290Y044883D01*
X018300Y044869D01*
X018313Y044856D01*
X018327Y044846D01*
X018343Y044839D01*
X018360Y044835D01*
X018377Y044833D01*
X018877Y044833D02*
X018894Y044835D01*
X018911Y044839D01*
X018927Y044846D01*
X018941Y044856D01*
X018954Y044869D01*
X018964Y044883D01*
X018971Y044899D01*
X018975Y044916D01*
X018977Y044933D01*
X015902Y045908D02*
X015802Y045908D01*
X015802Y045808D01*
X015802Y045908D02*
X015702Y045908D01*
X015802Y045908D02*
X015802Y046008D01*
X014252Y046408D02*
X014254Y046471D01*
X014260Y046533D01*
X014270Y046595D01*
X014283Y046657D01*
X014301Y046717D01*
X014322Y046776D01*
X014347Y046834D01*
X014376Y046890D01*
X014408Y046944D01*
X014443Y046996D01*
X014481Y047045D01*
X014523Y047093D01*
X014567Y047137D01*
X014615Y047179D01*
X014664Y047217D01*
X014716Y047252D01*
X014770Y047284D01*
X014826Y047313D01*
X014884Y047338D01*
X014943Y047359D01*
X015003Y047377D01*
X015065Y047390D01*
X015127Y047400D01*
X015189Y047406D01*
X015252Y047408D01*
X015315Y047406D01*
X015377Y047400D01*
X015439Y047390D01*
X015501Y047377D01*
X015561Y047359D01*
X015620Y047338D01*
X015678Y047313D01*
X015734Y047284D01*
X015788Y047252D01*
X015840Y047217D01*
X015889Y047179D01*
X015937Y047137D01*
X015981Y047093D01*
X016023Y047045D01*
X016061Y046996D01*
X016096Y046944D01*
X016128Y046890D01*
X016157Y046834D01*
X016182Y046776D01*
X016203Y046717D01*
X016221Y046657D01*
X016234Y046595D01*
X016244Y046533D01*
X016250Y046471D01*
X016252Y046408D01*
X016250Y046345D01*
X016244Y046283D01*
X016234Y046221D01*
X016221Y046159D01*
X016203Y046099D01*
X016182Y046040D01*
X016157Y045982D01*
X016128Y045926D01*
X016096Y045872D01*
X016061Y045820D01*
X016023Y045771D01*
X015981Y045723D01*
X015937Y045679D01*
X015889Y045637D01*
X015840Y045599D01*
X015788Y045564D01*
X015734Y045532D01*
X015678Y045503D01*
X015620Y045478D01*
X015561Y045457D01*
X015501Y045439D01*
X015439Y045426D01*
X015377Y045416D01*
X015315Y045410D01*
X015252Y045408D01*
X015189Y045410D01*
X015127Y045416D01*
X015065Y045426D01*
X015003Y045439D01*
X014943Y045457D01*
X014884Y045478D01*
X014826Y045503D01*
X014770Y045532D01*
X014716Y045564D01*
X014664Y045599D01*
X014615Y045637D01*
X014567Y045679D01*
X014523Y045723D01*
X014481Y045771D01*
X014443Y045820D01*
X014408Y045872D01*
X014376Y045926D01*
X014347Y045982D01*
X014322Y046040D01*
X014301Y046099D01*
X014283Y046159D01*
X014270Y046221D01*
X014260Y046283D01*
X014254Y046345D01*
X014252Y046408D01*
X022527Y046383D02*
X022527Y046283D01*
X022577Y046233D01*
X022577Y045333D01*
X022527Y045283D01*
X022527Y045183D01*
X022529Y045166D01*
X022533Y045149D01*
X022540Y045133D01*
X022550Y045119D01*
X022563Y045106D01*
X022577Y045096D01*
X022593Y045089D01*
X022610Y045085D01*
X022627Y045083D01*
X023127Y045083D02*
X023144Y045085D01*
X023161Y045089D01*
X023177Y045096D01*
X023191Y045106D01*
X023204Y045119D01*
X023214Y045133D01*
X023221Y045149D01*
X023225Y045166D01*
X023227Y045183D01*
X023227Y045283D01*
X023177Y045333D01*
X023177Y046233D01*
X023227Y046283D01*
X023227Y046383D01*
X023225Y046400D01*
X023221Y046417D01*
X023214Y046433D01*
X023204Y046447D01*
X023191Y046460D01*
X023177Y046470D01*
X023161Y046477D01*
X023144Y046481D01*
X023127Y046483D01*
X022627Y046483D02*
X022610Y046481D01*
X022593Y046477D01*
X022577Y046470D01*
X022563Y046460D01*
X022550Y046447D01*
X022540Y046433D01*
X022533Y046417D01*
X022529Y046400D01*
X022527Y046383D01*
X024127Y044908D02*
X024127Y044408D01*
X024377Y044158D01*
X024877Y044158D01*
X025127Y044408D01*
X025377Y044158D01*
X025877Y044158D01*
X026127Y044408D01*
X026377Y044158D01*
X026877Y044158D01*
X027127Y044408D01*
X027127Y044908D01*
X026877Y045158D01*
X026377Y045158D01*
X026127Y044908D01*
X025877Y045158D01*
X025377Y045158D01*
X025127Y044908D01*
X024877Y045158D01*
X024377Y045158D01*
X024127Y044908D01*
X012927Y020083D02*
X012927Y019283D01*
D13*
X014077Y037653D02*
X014377Y037653D01*
X014677Y037653D01*
X014677Y037903D02*
X014377Y037903D01*
X014077Y037903D01*
X036952Y044788D02*
X037252Y044788D01*
X037552Y044788D01*
X037552Y045038D02*
X037252Y045038D01*
X036952Y045038D01*
D14*
X036677Y045004D02*
X036376Y045304D01*
X036301Y045304D01*
X036226Y045229D01*
X036226Y045079D01*
X036301Y045004D01*
X036226Y044694D02*
X036677Y044694D01*
X036677Y044544D02*
X036677Y044844D01*
X036677Y045004D02*
X036677Y045304D01*
X036226Y044694D02*
X036376Y044544D01*
X036301Y044384D02*
X036226Y044309D01*
X036226Y044158D01*
X036301Y044083D01*
X036602Y044083D01*
X036677Y044158D01*
X036677Y044309D01*
X036602Y044384D01*
X035382Y044439D02*
X035307Y044364D01*
X035232Y044364D01*
X035156Y044439D01*
X035156Y044589D01*
X035232Y044664D01*
X035307Y044664D01*
X035382Y044589D01*
X035382Y044439D01*
X035156Y044439D02*
X035081Y044364D01*
X035006Y044364D01*
X034931Y044439D01*
X034931Y044589D01*
X035006Y044664D01*
X035081Y044664D01*
X035156Y044589D01*
X035006Y044204D02*
X034931Y044129D01*
X034931Y043903D01*
X035382Y043903D01*
X035382Y044129D01*
X035307Y044204D01*
X035006Y044204D01*
X034742Y044158D02*
X034441Y044158D01*
X034591Y044158D02*
X034591Y044609D01*
X034441Y044459D01*
X034281Y044609D02*
X034281Y044308D01*
X034131Y044158D01*
X033981Y044308D01*
X033981Y044609D01*
X033821Y044534D02*
X033746Y044609D01*
X033596Y044609D01*
X033520Y044534D01*
X033520Y044459D01*
X033596Y044384D01*
X033746Y044384D01*
X033821Y044308D01*
X033821Y044233D01*
X033746Y044158D01*
X033596Y044158D01*
X033520Y044233D01*
X031642Y045133D02*
X031642Y045208D01*
X031566Y045284D01*
X031341Y045284D01*
X031341Y045133D01*
X031416Y045058D01*
X031566Y045058D01*
X031642Y045133D01*
X031491Y045434D02*
X031341Y045284D01*
X031491Y045434D02*
X031642Y045509D01*
X034191Y046958D02*
X034492Y046958D01*
X034341Y046958D02*
X034341Y047409D01*
X034191Y047259D01*
X039031Y041859D02*
X039256Y041859D01*
X039331Y041784D01*
X039331Y041483D01*
X039256Y041408D01*
X039031Y041408D01*
X039031Y041859D01*
X039491Y041709D02*
X039641Y041859D01*
X039641Y041408D01*
X039491Y041408D02*
X039792Y041408D01*
X039771Y041259D02*
X039695Y041184D01*
X039695Y040883D01*
X039771Y040808D01*
X039921Y040808D01*
X039996Y040883D01*
X040156Y040808D02*
X040456Y040808D01*
X040306Y040808D02*
X040306Y041259D01*
X040156Y041109D01*
X039996Y041184D02*
X039921Y041259D01*
X039771Y041259D01*
X040616Y041034D02*
X040841Y041034D01*
X040917Y040958D01*
X040917Y040883D01*
X040841Y040808D01*
X040691Y040808D01*
X040616Y040883D01*
X040616Y041034D01*
X040766Y041184D01*
X040917Y041259D01*
X038527Y040108D02*
X038527Y038459D01*
X037977Y038396D02*
X037977Y038238D01*
X037977Y039171D02*
X037977Y039396D01*
X038527Y038458D02*
X038479Y038423D01*
X038429Y038390D01*
X038377Y038359D01*
X038323Y038332D01*
X038268Y038308D01*
X038211Y038288D01*
X038154Y038270D01*
X038096Y038256D01*
X038037Y038245D01*
X037977Y038238D01*
X037915Y038234D01*
X037852Y038233D01*
X037790Y038237D01*
X037728Y038244D01*
X037667Y038254D01*
X037606Y038269D01*
X037546Y038287D01*
X037487Y038308D01*
X037430Y038333D01*
X037375Y038361D01*
X037321Y038392D01*
X037269Y038427D01*
X037219Y038465D01*
X037172Y038505D01*
X037127Y038549D01*
X037084Y038594D01*
X037045Y038643D01*
X037008Y038693D01*
X036975Y038746D01*
X036944Y038800D01*
X036917Y038857D01*
X036894Y038914D01*
X036874Y038973D01*
X036874Y039593D02*
X036894Y039653D01*
X036918Y039712D01*
X036946Y039769D01*
X036977Y039824D01*
X037012Y039878D01*
X037049Y039929D01*
X037090Y039978D01*
X037134Y040024D01*
X037180Y040068D01*
X037229Y040109D01*
X037280Y040147D01*
X037333Y040181D01*
X037389Y040213D01*
X037446Y040240D01*
X037505Y040265D01*
X037565Y040285D01*
X037626Y040303D01*
X037688Y040316D01*
X037751Y040325D01*
X037814Y040331D01*
X037878Y040333D01*
X037942Y040331D01*
X038005Y040325D01*
X038068Y040316D01*
X038130Y040302D01*
X038191Y040285D01*
X038251Y040264D01*
X038310Y040240D01*
X038367Y040212D01*
X038423Y040180D01*
X038476Y040145D01*
X038527Y040108D01*
X037977Y040171D02*
X037977Y040329D01*
X037602Y040708D02*
X037151Y040708D01*
X037151Y040558D02*
X037151Y040859D01*
X037301Y041019D02*
X037151Y041169D01*
X037602Y041169D01*
X037602Y041019D02*
X037602Y041319D01*
X031402Y037348D02*
X031402Y037048D01*
X031402Y037198D02*
X030951Y037198D01*
X031101Y037048D01*
X031026Y036888D02*
X031327Y036888D01*
X031402Y036813D01*
X031402Y036663D01*
X031327Y036588D01*
X031026Y036588D01*
X030951Y036663D01*
X030951Y036813D01*
X031026Y036888D01*
X031252Y036738D02*
X031402Y036888D01*
X027852Y036698D02*
X027852Y036398D01*
X027852Y036548D02*
X027401Y036548D01*
X027551Y036398D01*
X027852Y036238D02*
X027852Y035938D01*
X027852Y036088D02*
X027401Y036088D01*
X027551Y035938D01*
X027476Y035777D02*
X027401Y035702D01*
X027401Y035552D01*
X027476Y035477D01*
X027777Y035477D01*
X027852Y035552D01*
X027852Y035702D01*
X027777Y035777D01*
X026352Y036333D02*
X026352Y036484D01*
X026277Y036559D01*
X026352Y036719D02*
X026352Y037019D01*
X026352Y036869D02*
X025901Y036869D01*
X026051Y036719D01*
X025976Y036559D02*
X025901Y036484D01*
X025901Y036333D01*
X025976Y036258D01*
X026277Y036258D01*
X026352Y036333D01*
X026277Y037179D02*
X026352Y037254D01*
X026352Y037404D01*
X026277Y037479D01*
X026202Y037479D01*
X026126Y037404D01*
X026126Y037329D01*
X026126Y037404D02*
X026051Y037479D01*
X025976Y037479D01*
X025901Y037404D01*
X025901Y037254D01*
X025976Y037179D01*
X025996Y043533D02*
X025846Y043533D01*
X025770Y043608D01*
X025846Y043759D02*
X025996Y043759D01*
X026071Y043683D01*
X026071Y043608D01*
X025996Y043533D01*
X025846Y043759D02*
X025770Y043834D01*
X025770Y043909D01*
X025846Y043984D01*
X025996Y043984D01*
X026071Y043909D01*
X026231Y043984D02*
X026231Y043683D01*
X026381Y043533D01*
X026531Y043683D01*
X026531Y043984D01*
X026691Y043909D02*
X026766Y043984D01*
X026916Y043984D01*
X026992Y043909D01*
X026992Y043834D01*
X026691Y043533D01*
X026992Y043533D01*
X027191Y044433D02*
X027492Y044433D01*
X027341Y044433D02*
X027341Y044884D01*
X027191Y044734D01*
X034851Y034498D02*
X035302Y034498D01*
X035302Y034348D02*
X035302Y034648D01*
X035001Y034348D02*
X034851Y034498D01*
X034926Y034188D02*
X034851Y034113D01*
X034851Y033963D01*
X034926Y033888D01*
X034926Y033727D02*
X035076Y033727D01*
X035152Y033652D01*
X035152Y033427D01*
X035302Y033427D02*
X034851Y033427D01*
X034851Y033652D01*
X034926Y033727D01*
X035152Y033577D02*
X035302Y033727D01*
X035302Y033888D02*
X035001Y034188D01*
X034926Y034188D01*
X035302Y034188D02*
X035302Y033888D01*
X035727Y034608D02*
X035727Y032959D01*
X036277Y032896D02*
X036277Y032738D01*
X036651Y032323D02*
X036651Y032173D01*
X036726Y032098D01*
X036651Y031938D02*
X036651Y031638D01*
X036651Y031788D02*
X037102Y031788D01*
X037352Y031883D02*
X037427Y031808D01*
X037577Y031808D01*
X037652Y031883D01*
X037812Y031808D02*
X038112Y031808D01*
X037962Y031808D02*
X037962Y032259D01*
X037812Y032109D01*
X037652Y032184D02*
X037577Y032259D01*
X037427Y032259D01*
X037352Y032184D01*
X037352Y031883D01*
X037102Y032098D02*
X036801Y032398D01*
X036726Y032398D01*
X036651Y032323D01*
X037102Y032398D02*
X037102Y032098D01*
X038272Y032034D02*
X038573Y032034D01*
X038498Y032259D02*
X038272Y032034D01*
X038498Y032259D02*
X038498Y031808D01*
X037380Y034093D02*
X037360Y034152D01*
X037337Y034209D01*
X037310Y034266D01*
X037279Y034320D01*
X037246Y034373D01*
X037209Y034423D01*
X037170Y034472D01*
X037127Y034517D01*
X037082Y034561D01*
X037035Y034601D01*
X036985Y034639D01*
X036933Y034674D01*
X036879Y034705D01*
X036824Y034733D01*
X036767Y034758D01*
X036708Y034779D01*
X036648Y034797D01*
X036587Y034812D01*
X036526Y034822D01*
X036464Y034829D01*
X036402Y034833D01*
X036339Y034832D01*
X036277Y034828D01*
X036277Y034829D02*
X036277Y034671D01*
X036277Y033896D02*
X036277Y033671D01*
X035727Y034608D02*
X035775Y034643D01*
X035825Y034676D01*
X035877Y034707D01*
X035931Y034734D01*
X035986Y034758D01*
X036043Y034778D01*
X036100Y034796D01*
X036158Y034810D01*
X036217Y034821D01*
X036277Y034828D01*
X037380Y033473D02*
X037360Y033413D01*
X037336Y033354D01*
X037308Y033297D01*
X037277Y033242D01*
X037242Y033188D01*
X037205Y033137D01*
X037164Y033088D01*
X037120Y033042D01*
X037074Y032998D01*
X037025Y032957D01*
X036974Y032919D01*
X036921Y032885D01*
X036865Y032853D01*
X036808Y032826D01*
X036749Y032801D01*
X036689Y032781D01*
X036628Y032763D01*
X036566Y032750D01*
X036503Y032741D01*
X036440Y032735D01*
X036376Y032733D01*
X036312Y032735D01*
X036249Y032741D01*
X036186Y032750D01*
X036124Y032764D01*
X036063Y032781D01*
X036003Y032802D01*
X035944Y032826D01*
X035887Y032854D01*
X035831Y032886D01*
X035778Y032921D01*
X035727Y032958D01*
X026212Y029534D02*
X026212Y029459D01*
X026137Y029384D01*
X026212Y029308D01*
X026212Y029233D01*
X026137Y029158D01*
X025987Y029158D01*
X025912Y029233D01*
X025752Y029233D02*
X025752Y029534D01*
X025677Y029609D01*
X025452Y029609D01*
X025452Y029158D01*
X025677Y029158D01*
X025752Y029233D01*
X025912Y029534D02*
X025987Y029609D01*
X026137Y029609D01*
X026212Y029534D01*
X026137Y029384D02*
X026062Y029384D01*
X031651Y024569D02*
X031651Y024269D01*
X031876Y024269D01*
X031801Y024419D01*
X031801Y024494D01*
X031876Y024569D01*
X032027Y024569D01*
X032102Y024494D01*
X032102Y024344D01*
X032027Y024269D01*
X032027Y024109D02*
X031726Y024109D01*
X031651Y024034D01*
X031651Y023808D01*
X032102Y023808D01*
X032102Y024034D01*
X032027Y024109D01*
X034651Y024034D02*
X034651Y023808D01*
X035102Y023808D01*
X035102Y024034D01*
X035027Y024109D01*
X034726Y024109D01*
X034651Y024034D01*
X034876Y024269D02*
X034651Y024494D01*
X035102Y024494D01*
X034876Y024569D02*
X034876Y024269D01*
X018702Y025333D02*
X018702Y025484D01*
X018627Y025559D01*
X018326Y025559D01*
X018251Y025484D01*
X018251Y025333D01*
X018326Y025258D01*
X018627Y025258D01*
X018702Y025333D01*
X018702Y025719D02*
X018251Y025719D01*
X018476Y025794D02*
X018702Y026019D01*
X018702Y026179D02*
X018401Y026479D01*
X018326Y026479D01*
X018251Y026404D01*
X018251Y026254D01*
X018326Y026179D01*
X018251Y026019D02*
X018552Y025719D01*
X018702Y026179D02*
X018702Y026479D01*
X016202Y026479D02*
X016202Y026179D01*
X016202Y026329D02*
X015751Y026329D01*
X015901Y026179D01*
X015751Y026019D02*
X016052Y025719D01*
X015976Y025794D02*
X016202Y026019D01*
X016202Y025719D02*
X015751Y025719D01*
X015826Y025559D02*
X015751Y025484D01*
X015751Y025333D01*
X015826Y025258D01*
X016127Y025258D01*
X016202Y025333D01*
X016202Y025484D01*
X016127Y025559D01*
X015826Y025559D01*
X013702Y033158D02*
X013702Y033308D01*
X013702Y033233D02*
X013251Y033233D01*
X013251Y033158D02*
X013251Y033308D01*
X013326Y033465D02*
X013627Y033465D01*
X013702Y033540D01*
X013702Y033690D01*
X013627Y033766D01*
X013702Y033926D02*
X013401Y034226D01*
X013326Y034226D01*
X013251Y034151D01*
X013251Y034001D01*
X013326Y033926D01*
X013326Y033766D02*
X013251Y033690D01*
X013251Y033540D01*
X013326Y033465D01*
X013702Y033926D02*
X013702Y034226D01*
X015026Y037277D02*
X015327Y037277D01*
X015402Y037352D01*
X015402Y037502D01*
X015327Y037577D01*
X015402Y037738D02*
X015402Y038038D01*
X015402Y037888D02*
X014951Y037888D01*
X015101Y037738D01*
X015026Y037577D02*
X014951Y037502D01*
X014951Y037352D01*
X015026Y037277D01*
X015026Y038198D02*
X014951Y038273D01*
X014951Y038423D01*
X015026Y038498D01*
X015327Y038198D01*
X015402Y038273D01*
X015402Y038423D01*
X015327Y038498D01*
X015026Y038498D01*
X015026Y038198D02*
X015327Y038198D01*
X014091Y045433D02*
X013941Y045433D01*
X013866Y045508D01*
X013706Y045508D02*
X013631Y045433D01*
X013481Y045433D01*
X013406Y045508D01*
X013406Y045809D01*
X013481Y045884D01*
X013631Y045884D01*
X013706Y045809D01*
X013866Y045809D02*
X013941Y045884D01*
X014091Y045884D01*
X014167Y045809D01*
X014167Y045734D01*
X014091Y045659D01*
X014167Y045583D01*
X014167Y045508D01*
X014091Y045433D01*
X014091Y045659D02*
X014016Y045659D01*
D15*
X025802Y028283D03*
D16*
X025102Y028283D03*
X028652Y028283D03*
D17*
X033377Y024283D03*
X036377Y024283D03*
D18*
X036377Y023608D03*
X033377Y023608D03*
X033377Y027958D03*
X036377Y027958D03*
D19*
X038227Y029883D02*
X038227Y025683D01*
X040527Y025683D02*
X040527Y029883D01*
X041727Y029883D02*
X041727Y025683D01*
X044027Y025683D02*
X044027Y029883D01*
X029627Y029983D02*
X026377Y029983D01*
X026377Y033583D01*
X029627Y033583D01*
X029627Y029983D01*
D20*
X027292Y030423D02*
X027187Y030318D01*
X026766Y030318D01*
X026661Y030423D01*
X026661Y030634D01*
X026766Y030739D01*
X027187Y030739D01*
X027292Y030634D01*
X027292Y030423D01*
X027081Y030529D02*
X027292Y030739D01*
X027292Y030963D02*
X026871Y031383D01*
X026766Y031383D01*
X026661Y031278D01*
X026661Y031068D01*
X026766Y030963D01*
X027292Y030963D02*
X027292Y031383D01*
X037461Y027173D02*
X038092Y027173D01*
X038092Y026963D02*
X038092Y027383D01*
X037671Y026963D02*
X037461Y027173D01*
X037461Y026739D02*
X037461Y026318D01*
X038092Y026318D01*
X037776Y026318D02*
X037776Y026529D01*
X040961Y026318D02*
X040961Y026739D01*
X041066Y026963D02*
X040961Y027068D01*
X040961Y027278D01*
X041066Y027383D01*
X041171Y027383D01*
X041592Y026963D01*
X041592Y027383D01*
X041276Y026529D02*
X041276Y026318D01*
X040961Y026318D02*
X041592Y026318D01*
X040477Y031818D02*
X040056Y031818D01*
X040266Y031818D02*
X040266Y032449D01*
X040056Y032239D01*
X039832Y032449D02*
X039412Y032029D01*
X039517Y032134D02*
X039832Y031818D01*
X039412Y031818D02*
X039412Y032449D01*
X020782Y040318D02*
X020782Y040529D01*
X020782Y040423D02*
X020151Y040423D01*
X020151Y040318D02*
X020151Y040529D01*
X020256Y040748D02*
X020677Y040748D01*
X020782Y040853D01*
X020782Y041063D01*
X020677Y041168D01*
X020782Y041393D02*
X020782Y041813D01*
X020782Y041603D02*
X020151Y041603D01*
X020361Y041393D01*
X020256Y041168D02*
X020151Y041063D01*
X020151Y040853D01*
X020256Y040748D01*
D21*
X038352Y030008D03*
X040402Y030008D03*
X041852Y030008D03*
X043902Y030008D03*
X043902Y025558D03*
X041852Y025558D03*
X040402Y025558D03*
X038352Y025558D03*
D22*
X040277Y024558D03*
X043777Y024558D03*
D23*
X043627Y027783D03*
X042127Y027783D03*
X040127Y027783D03*
X038627Y027783D03*
D24*
X038602Y024708D03*
X040152Y024708D03*
X042102Y024708D03*
X043652Y024708D03*
X043652Y030858D03*
X042102Y030858D03*
X040152Y030858D03*
X038602Y030858D03*
D25*
X038477Y030933D03*
X040277Y030933D03*
X041977Y030933D03*
X043777Y030933D03*
X041977Y024633D03*
X038477Y024633D03*
D26*
X041377Y040533D03*
D27*
X030577Y037983D02*
X030577Y037783D01*
X030177Y037833D02*
X030177Y037983D01*
D28*
X030177Y037768D03*
X030577Y037768D03*
D29*
X031102Y032783D03*
X031102Y031783D03*
X031102Y030783D03*
D30*
X030427Y030783D03*
X030427Y031783D03*
X030427Y032783D03*
D31*
X031469Y026289D02*
X029284Y026289D01*
X029087Y026092D01*
X029087Y023937D01*
X031666Y023937D01*
X031666Y026092D01*
X031469Y026289D01*
X027166Y026092D02*
X027166Y023937D01*
X024587Y023937D01*
X024587Y026092D01*
X024784Y026289D01*
X026969Y026289D01*
X027166Y026092D01*
X013177Y016983D02*
X012927Y017233D01*
X012927Y020083D01*
X011327Y020083D01*
X013177Y016983D02*
X044577Y016983D01*
X044827Y017233D01*
X044827Y020083D01*
X046816Y020083D01*
X042417Y044808D02*
X039837Y044808D01*
X039837Y047168D01*
X042417Y047168D02*
X042417Y044808D01*
X016860Y045494D02*
X016860Y040573D01*
X014143Y040573D01*
X014143Y045494D01*
X016860Y045494D01*
D32*
X025877Y023743D03*
X030377Y023743D03*
X041127Y044618D03*
D33*
X033877Y034838D03*
X033877Y030728D03*
D34*
X039677Y042539D03*
D35*
X040071Y042533D03*
X038182Y042533D03*
D36*
X037885Y043519D02*
X037885Y044148D01*
X037983Y044148D01*
X037983Y046668D01*
X037885Y046668D01*
X037885Y047298D01*
X039676Y047298D01*
X039676Y043519D01*
X037885Y043519D01*
X036627Y043908D02*
X036627Y044408D01*
X036127Y044408D01*
X036127Y044258D01*
X036127Y044408D02*
X035627Y044408D01*
X035627Y044908D01*
X035627Y045408D02*
X036127Y045408D01*
X036627Y045408D01*
X036127Y044408D01*
X035627Y045408D01*
X036127Y045408D02*
X036127Y045558D01*
D37*
X016502Y041033D03*
D38*
X039105Y044109D03*
M02*
