G75*
%MOIN*%
%OFA0B0*%
%FSLAX24Y24*%
%IPPOS*%
%LPD*%
%AMOC8*
5,1,8,0,0,1.08239X$1,22.5*
%
%ADD10R,0.0710X0.0789*%
%ADD11OC8,0.0600*%
%ADD12OC8,0.0710*%
%ADD13C,0.0710*%
%ADD14R,0.0789X0.0710*%
%ADD15R,0.0631X0.0474*%
%ADD16C,0.0740*%
%ADD17C,0.0965*%
%ADD18R,0.0474X0.0631*%
%ADD19C,0.1080*%
%ADD20C,0.0600*%
%ADD21C,0.0680*%
%ADD22C,0.0600*%
%ADD23C,0.1380*%
%ADD24R,0.2206X0.2521*%
%ADD25R,0.0474X0.0710*%
%ADD26OC8,0.0640*%
%ADD27R,0.0680X0.2630*%
%ADD28C,0.0680*%
%ADD29OC8,0.0680*%
%ADD30C,0.0749*%
%ADD31R,0.0552X0.0316*%
%ADD32R,0.2363X0.2521*%
%ADD33R,0.0710X0.1261*%
%ADD34R,0.0710X0.0867*%
%ADD35C,0.0520*%
%ADD36OC8,0.0840*%
%ADD37OC8,0.0631*%
D10*
X014825Y031283D03*
X015928Y031283D03*
X017325Y031283D03*
X018428Y031283D03*
X019825Y031283D03*
X020928Y031283D03*
X016428Y034283D03*
X015325Y034283D03*
X018575Y043158D03*
X019678Y043158D03*
X027825Y044283D03*
X028928Y044283D03*
X028825Y041283D03*
X029928Y041283D03*
D11*
X033627Y038283D03*
X034877Y038283D03*
X035877Y038283D03*
X036877Y037783D03*
X037877Y038783D03*
X037127Y039283D03*
X037877Y039783D03*
X036377Y039783D03*
X036377Y041783D03*
X036127Y043908D03*
X037252Y043908D03*
X037252Y045908D03*
X036127Y045908D03*
X035877Y036283D03*
X034877Y036283D03*
X033627Y036283D03*
X036377Y034283D03*
X037127Y033783D03*
X036377Y033283D03*
X036877Y035783D03*
X024877Y034783D03*
X023377Y034783D03*
X023377Y036783D03*
X023877Y037783D03*
X024877Y036783D03*
X021877Y037783D03*
X021877Y044283D03*
X021002Y044283D03*
X022877Y044783D03*
X021877Y046283D03*
X021002Y046283D03*
X022877Y046783D03*
X018627Y046533D03*
X018627Y044533D03*
X014377Y038783D03*
X014377Y036783D03*
X014877Y029283D03*
X016877Y029283D03*
X017877Y029283D03*
X019877Y029283D03*
X021877Y026783D03*
X023877Y026283D03*
X021877Y024783D03*
X023877Y024283D03*
X027877Y024783D03*
X027877Y022783D03*
X017877Y023283D03*
X015877Y023283D03*
X015877Y021283D03*
X017877Y021283D03*
D12*
X026877Y035783D03*
X026877Y037283D03*
X036877Y031283D03*
X041502Y041783D03*
X014752Y046408D03*
D13*
X015752Y046408D03*
X026877Y038283D03*
X026877Y034783D03*
X035877Y031283D03*
X042502Y041783D03*
D14*
X031877Y037835D03*
X031877Y036732D03*
X028877Y036732D03*
X028877Y037835D03*
D15*
X040944Y038658D03*
X041810Y038284D03*
X041810Y039032D03*
X020310Y023157D03*
X020310Y022409D03*
X019444Y022783D03*
D16*
X024047Y028283D02*
X024707Y028283D01*
X029047Y028283D02*
X029707Y028283D01*
X031547Y030783D02*
X032207Y030783D01*
X032207Y031783D02*
X031547Y031783D01*
X031547Y032783D02*
X032207Y032783D01*
D17*
X033377Y029226D02*
X033377Y028341D01*
X036377Y028341D02*
X036377Y029226D01*
X036377Y023226D02*
X036377Y022341D01*
X033377Y022341D02*
X033377Y023226D01*
D18*
X043252Y042600D03*
X043626Y043466D03*
X042878Y043466D03*
X043252Y045225D03*
X043626Y046091D03*
X042878Y046091D03*
D19*
X043377Y031883D02*
X042377Y031883D01*
X042377Y029883D02*
X043377Y029883D01*
X039877Y029883D02*
X038877Y029883D01*
X038877Y031883D02*
X039877Y031883D01*
X039877Y025683D02*
X038877Y025683D01*
X038877Y023683D02*
X039877Y023683D01*
X042377Y023683D02*
X043377Y023683D01*
X043377Y025683D02*
X042377Y025683D01*
D20*
X034877Y039523D02*
X034877Y040043D01*
X033877Y040043D02*
X033877Y039523D01*
X032877Y039523D02*
X032877Y040043D01*
X031877Y040043D02*
X031877Y039523D01*
X030877Y039523D02*
X030877Y040043D01*
X029877Y040043D02*
X029877Y039523D01*
X028877Y039523D02*
X028877Y040043D01*
X027877Y040043D02*
X027877Y039523D01*
X026877Y039523D02*
X026877Y040043D01*
X025877Y040043D02*
X025877Y039523D01*
X024877Y039523D02*
X024877Y040043D01*
X023877Y040043D02*
X023877Y039523D01*
X022877Y039523D02*
X022877Y040043D01*
X021877Y040043D02*
X021877Y039523D01*
X021877Y042523D02*
X021877Y043043D01*
X022877Y043043D02*
X022877Y042523D01*
X023877Y042523D02*
X023877Y043043D01*
X024877Y043043D02*
X024877Y042523D01*
X025877Y042523D02*
X025877Y043043D01*
X026877Y043043D02*
X026877Y042523D01*
X027877Y042523D02*
X027877Y043043D01*
X028877Y043043D02*
X028877Y042523D01*
X029877Y042523D02*
X029877Y043043D01*
X030877Y043043D02*
X030877Y042523D01*
X031877Y042523D02*
X031877Y043043D01*
X032877Y043043D02*
X032877Y042523D01*
X033877Y042523D02*
X033877Y043043D01*
X034877Y043043D02*
X034877Y042523D01*
X021377Y036043D02*
X021377Y035523D01*
X020377Y035523D02*
X020377Y036043D01*
X019377Y036043D02*
X019377Y035523D01*
X018377Y035523D02*
X018377Y036043D01*
X017377Y036043D02*
X017377Y035523D01*
X016377Y035523D02*
X016377Y036043D01*
X015377Y036043D02*
X015377Y035523D01*
X014377Y035523D02*
X014377Y036043D01*
X014377Y033043D02*
X014377Y032523D01*
X015377Y032523D02*
X015377Y033043D01*
X016377Y033043D02*
X016377Y032523D01*
X017377Y032523D02*
X017377Y033043D01*
X018377Y033043D02*
X018377Y032523D01*
X019377Y032523D02*
X019377Y033043D01*
X020377Y033043D02*
X020377Y032523D01*
X021377Y032523D02*
X021377Y033043D01*
X020377Y028303D02*
X020377Y027783D01*
X019377Y027783D02*
X019377Y028303D01*
X017877Y028303D02*
X017877Y027783D01*
X016877Y027783D02*
X016877Y028303D01*
X016877Y024783D02*
X016877Y024263D01*
X017877Y024263D02*
X017877Y024783D01*
X019377Y024783D02*
X019377Y024263D01*
X020377Y024263D02*
X020377Y024783D01*
D21*
X039577Y033283D02*
X040177Y033283D01*
X040177Y035283D02*
X039577Y035283D01*
X039577Y037283D02*
X040177Y037283D01*
X042577Y037283D02*
X043177Y037283D01*
X043177Y035283D02*
X042577Y035283D01*
X042577Y033283D02*
X043177Y033283D01*
X043177Y040283D02*
X042577Y040283D01*
X040177Y040283D02*
X039577Y040283D01*
X026627Y044358D02*
X026627Y044958D01*
X025627Y044958D02*
X025627Y044358D01*
X024627Y044358D02*
X024627Y044958D01*
D22*
X029877Y038283D03*
X030877Y038283D03*
D23*
X024977Y031783D03*
D24*
X025877Y025768D03*
X030377Y025768D03*
D25*
X031274Y022894D03*
X029479Y022894D03*
X026774Y022894D03*
X024979Y022894D03*
D26*
X033877Y030283D03*
X033877Y035283D03*
D27*
X013877Y018783D03*
X014877Y018783D03*
X015877Y018783D03*
X016877Y018783D03*
X017877Y018783D03*
X018877Y018783D03*
X019877Y018783D03*
X020877Y018783D03*
X021877Y018783D03*
X022877Y018783D03*
X023877Y018783D03*
X024877Y018783D03*
X025877Y018783D03*
X026877Y018783D03*
X027877Y018783D03*
X028877Y018783D03*
X029877Y018783D03*
X030877Y018783D03*
X031877Y018783D03*
X032877Y018783D03*
X033877Y018783D03*
X034877Y018783D03*
X035877Y018783D03*
X036877Y018783D03*
X037877Y018783D03*
X038877Y018783D03*
X039877Y018783D03*
X040877Y018783D03*
X041877Y018783D03*
X042877Y018783D03*
X043877Y018783D03*
D28*
X034377Y046283D03*
D29*
X034377Y045283D03*
X033377Y045283D03*
X033377Y046283D03*
X032377Y046283D03*
X032377Y045283D03*
D30*
X037627Y042533D03*
X040627Y042533D03*
D31*
X017252Y042283D03*
X017252Y041783D03*
X017252Y041283D03*
X017252Y042783D03*
X017252Y043283D03*
X017252Y043783D03*
X017252Y044283D03*
X017252Y044783D03*
X013752Y044783D03*
X013752Y044283D03*
X013752Y043783D03*
X013752Y043283D03*
X013752Y042783D03*
X013752Y042283D03*
X013752Y041783D03*
X013752Y041283D03*
D32*
X041127Y046595D03*
D33*
X042024Y043769D03*
X040229Y043769D03*
D34*
X039553Y041408D03*
X038450Y041408D03*
D35*
X038377Y044408D03*
X038377Y045408D03*
X038377Y046408D03*
D36*
X026877Y028283D03*
X030877Y027908D03*
X026252Y021658D03*
X019627Y021658D03*
X013002Y021033D03*
X045127Y021033D03*
D37*
X035252Y023533D03*
X033502Y025283D03*
X022877Y025283D03*
X022377Y023408D03*
X022377Y021408D03*
X014502Y027908D03*
X020752Y037283D03*
X020002Y046283D03*
M02*
